<?xml version="1.0" encoding="utf-8"?>
<!-- Generator: Adobe Illustrator 21.1.0, SVG Export Plug-In . SVG Version: 6.00 Build 0)  -->
<!DOCTYPE svg PUBLIC "-//W3C//DTD SVG 1.0//EN" "http://www.w3.org/TR/2001/REC-SVG-20010904/DTD/svg10.dtd">
<svg version="1.0" id="Layer_1" xmlns="http://www.w3.org/2000/svg" xmlns:xlink="http://www.w3.org/1999/xlink" x="0px" y="0px"
	 viewBox="0 0 408.5 491.1" style="enable-background:new 0 0 408.5 491.1;" xml:space="preserve">
<style type="text/css">
	.st0{fill:#FFFFFF;}
</style>
<title>DCCO2018_Logo_White</title>
<g>
	<g>
		<path class="st0" d="M124.1,362.3l-7.9,10.5l-2,13l8-10.6L124.1,362.3z M119.7,375.5c-0.8,0.3-1.7-0.1-2.1-0.9s0.1-1.7,0.9-2.1
			c0.8-0.3,1.7,0.1,2,0.9C121,374.2,120.6,375.2,119.7,375.5z"/>
		<path class="st0" d="M293.2,151.8c-0.4,0.5-0.9,0.9-1.3,1.4l1.3,1.5V151.8z"/>
		<path class="st0" d="M33.5,342.4c0.2,0.6,0.8,1,1.4,1c0.2,0,0.3,0,0.5-0.1c0.8-0.3,1.2-1.1,0.9-1.9c-1-2.8-2-5.6-2.8-8.4
			c-0.2-0.8-1-1.3-1.8-1.1c-0.8,0.2-1.3,1-1.1,1.8c0,0.1,0,0.1,0,0.2C31.5,336.7,32.4,339.6,33.5,342.4z"/>
		<path class="st0" d="M37.5,348.8c-0.8,0.3-1.1,1.2-0.8,2l0,0c1.2,2.7,2.4,5.5,3.7,8.2c0.3,0.5,0.8,0.8,1.4,0.9
			c0.2,0,0.4-0.1,0.7-0.1c0.7-0.4,1.1-1.3,0.7-2c-1.3-2.6-2.5-5.3-3.6-8C39.2,348.9,38.3,348.5,37.5,348.8
			C37.6,348.7,37.5,348.8,37.5,348.8z"/>
		<path class="st0" d="M45.1,364.9c-0.7,0.4-1,1.3-0.6,2c0.7,1.3,1.5,2.7,2.2,4c0.3,0.5,0.8,0.8,1.3,0.8c0.3,0,0.5-0.1,0.8-0.2
			c0.7-0.4,1-1.3,0.6-2l0,0c-0.7-1.3-1.5-2.6-2.2-3.9C46.8,364.7,45.9,364.5,45.1,364.9L45.1,364.9z"/>
		<path class="st0" d="M384.2,280.9L384.2,280.9c0.8,0,1.5-0.7,1.5-1.5l0,0c0-1.5,0-3-0.1-4.5c0-0.8-0.7-1.5-1.5-1.5
			s-1.5,0.7-1.5,1.5c0,1.5,0.1,3,0.1,4.5C382.7,280.2,383.4,280.9,384.2,280.9L384.2,280.9z"/>
		<path class="st0" d="M359.3,371.8c0.2,0.1,0.5,0.2,0.8,0.2c0.5,0,1-0.3,1.3-0.8c1.6-2.8,3.1-5.6,4.6-8.4c0.3-0.8,0-1.6-0.8-2
			c-0.7-0.3-1.5,0-1.9,0.6c-1.4,2.8-3,5.6-4.5,8.3C358.4,370.4,358.6,371.4,359.3,371.8L359.3,371.8z"/>
		<path class="st0" d="M368.8,355c0.6,0,1.1-0.3,1.4-0.9c1.3-2.9,2.5-5.9,3.7-8.9c0.3-0.8-0.1-1.6-0.9-1.9s-1.6,0.1-1.9,0.9
			c-1.1,2.9-2.3,5.9-3.6,8.7c-0.3,0.8,0,1.6,0.8,2C368.3,355,368.5,355,368.8,355L368.8,355z"/>
		<path class="st0" d="M381.8,298.3c-0.1,0.8,0.5,1.6,1.3,1.6l0,0h0.1c0.8,0,1.4-0.6,1.5-1.4c0.3-3.2,0.5-6.4,0.7-9.6
			c0-0.8-0.6-1.5-1.4-1.6s-1.5,0.6-1.6,1.4C382.4,292,382.1,295.2,381.8,298.3z"/>
		<path class="st0" d="M348.8,387.6c0.3,0.2,0.6,0.3,0.9,0.3c0.5,0,0.9-0.2,1.2-0.6c1.9-2.6,3.7-5.2,5.5-7.9
			c0.5-0.7,0.3-1.6-0.4-2.1c-0.7-0.5-1.6-0.3-2.1,0.4c0,0,0,0.1-0.1,0.1c-1.7,2.6-3.5,5.2-5.4,7.8
			C348,386.2,348.1,387.2,348.8,387.6L348.8,387.6z"/>
		<path class="st0" d="M380.7,307.7c-0.5,3.1-1,6.2-1.7,9.3c-0.2,0.8,0.4,1.6,1.2,1.8l0,0h0.3c0.7,0,1.3-0.5,1.5-1.2
			c0.6-3.1,1.2-6.3,1.7-9.5c0.1-0.8-0.4-1.6-1.3-1.7C381.6,306.2,380.8,306.8,380.7,307.7L380.7,307.7z"/>
		<path class="st0" d="M376.8,326.2c-0.8,3-1.7,6.1-2.7,9.1c-0.3,0.8,0.2,1.6,1,1.9s1.6-0.2,1.9-1l0,0c1-3,1.9-6.1,2.7-9.2
			c0.2-0.8-0.2-1.6-1-1.9l0,0C377.9,324.8,377,325.3,376.8,326.2C376.8,326.1,376.8,326.2,376.8,326.2z"/>
		<path class="st0" d="M69.5,230.3l-1,3l-0.8,1.7c-0.1,0.2-0.1,0.4-0.2,0.6c-0.1,0.1-0.2,0.3-0.2,0.5l-0.2,0.7L67,237
			c-0.3,0.3-0.5,0.6-0.5,1l-0.1,0.6l-0.8,1.4l-0.1,0.1l-2.6,5.5c-0.1,0.2-0.2,0.5-0.2,0.7l-0.2,0.2c-0.2,0.2-0.3,0.3-0.4,0.5
			l-0.8,1.7l-0.5,0.7c-0.2,0.3-0.3,0.6-0.3,1l-0.3,0.4c-0.1,0.1-0.1,0.2-0.2,0.2l-1.1,1.8c-0.1,0.2-0.2,0.5-0.2,0.8h-0.1
			c-0.1,0.1-0.1,0.1-0.2,0.2l-0.6,0.9c-0.1,0.2-0.2,0.3-0.2,0.5l-0.3,1c-0.1,0.2-0.1,0.4-0.1,0.5v0.5c0,1,0.8,1.8,1.7,1.8
			c0.5,0,0.9-0.2,1.3-0.5l0.8-0.8c0.1-0.1,0.2-0.2,0.3-0.4l1.1-1.9c0.1-0.1,0.1-0.3,0.2-0.4c0.3-0.2,0.6-0.6,0.6-1l0.1-0.3l1.6-2.9
			c0.1-0.1,0.1-0.2,0.1-0.3l0.2-0.6c0.1-0.1,0.2-0.2,0.3-0.3l0.5-0.8c0.1-0.2,0.2-0.3,0.2-0.5V248l0.6-0.9c0.1-0.1,0.1-0.2,0.2-0.3
			l0.4-0.9c0-0.1,0.1-0.2,0.1-0.3l0.2-0.8l1.3-2.4l0.1-0.2l1.5-3.7l1.7-3.6c0.1-0.2,0.2-0.5,0.2-0.8c0.1-0.1,0.2-0.3,0.2-0.4
			l0.9-2.4l0.6,0.1h0.3l0.1,0.1l0.4,0.2c0.1,0.1,0.3,0.1,0.4,0.1l0.6,0.1l0,0c0.1,0.1,0.3,0.2,0.4,0.2l0.6,0.2
			c0.2,0.1,0.4,0.1,0.6,0.1l0.1,0.1L78,233c0.2,0.1,0.4,0.2,0.7,0.2l1.4,1.3l0.3,0.5l0.2,0.7v0.6l-0.3,1.1c0,0.2,0,0.4,0,0.6
			c0,0.1,0,0.1,0,0.2v0.4l-0.7,1.5c-0.1,0.1-0.1,0.3-0.1,0.4l-0.2,1.1l0,0c-0.3,0.3-0.4,0.7-0.4,1.1v0.3l-2.1,6.1
			c0,0.1-0.1,0.2-0.1,0.4l-0.4,3c0,0.1,0,0.1,0,0.2v1.1c0,0.2,0,0.4,0.1,0.6l0.2,0.5c-0.1,0.4-0.1,0.9,0.1,1.3l0.4,1
			c0.1,0.2,0.2,0.4,0.4,0.5l0.8,0.8c0.2,0.2,0.4,0.3,0.6,0.4l1.9,0.8c0.2,0.1,0.3,0.1,0.5,0.1l0.6,0.1h0.4l1.1-0.1
			c0.1,0,0.2,0,0.3-0.1l2-0.6L86,259l1.7-1l0.2-0.1l0.8-0.6c0.1-0.1,0.2-0.1,0.2-0.2l0.6-0.7c0.1-0.1,0.2-0.2,0.2-0.3
			c0.3-0.1,0.5-0.3,0.7-0.6l0.1-0.2l0.2-0.1c0.2-0.1,0.4-0.3,0.5-0.5l0.4-0.7l0.1,0.5c0,0.2,0.1,0.3,0.1,0.5l0.9,1.8
			c0.1,0.1,0.1,0.2,0.2,0.4l0.6,0.7c0.2,0.2,0.3,0.3,0.6,0.4l2.2,1.1c0.1,0.1,0.2,0.1,0.4,0.1l1,0.2c0.2,0,0.3,0.1,0.5,0h0.7H99
			c0.2,0.1,0.4,0.1,0.7,0.1h0.6c0.1,0,0.3,0,0.4,0l3.1-0.8c0.1,0,0.2-0.1,0.3-0.1l2.9-1.4c0.1,0,0.2-0.1,0.3-0.2l1.5-1.1
			c0.2-0.1,0.3-0.3,0.5-0.5l0.1-0.1c0.2-0.1,0.5-0.3,0.6-0.5l0.8-1v0.6c0,0.1,0,0.3,0.1,0.4l0.1,0.5c0,0.1,0.1,0.2,0.1,0.4l0.4,0.9
			c0.1,0.1,0.2,0.3,0.3,0.4l1.2,1.3c0.3,0.4,0.8,0.6,1.3,0.6h0.3c0.2,0.2,0.5,0.3,0.8,0.3l0.6,0.1h0.5l2.2-0.3
			c0.2,0,0.3-0.1,0.4-0.1l1.9-0.8c0.1-0.1,0.3-0.1,0.4-0.2l0.8-0.6l0.2-0.2l0.5-0.5l0.7-0.5v0.1c-0.2,0.3-0.4,0.6-0.4,1l-0.1,0.9
			l-0.5,1.1l-0.1,0.2l-0.4,1.4l-0.3,0.6c-0.1,0.1-0.2,0.3-0.2,0.5L121,265l-1.6,4.4c-0.1,0.2-0.1,0.5-0.1,0.8v0.1l-0.9,2.6
			c-0.1,0.2-0.1,0.4-0.1,0.6v0.6c0,0.3,0.1,0.6,0.3,0.9l0.2,0.3c0.3,0.4,0.7,0.7,1.2,0.8c0.1,0,0.2,0,0.3,0c0.4,0,0.8-0.1,1.1-0.4
			l0.4-0.3c0.3-0.3,0.5-0.6,0.6-1l0.3-1.3l1-2.6c0-0.1,0.1-0.2,0.1-0.3l0.2-1c0-0.1,0-0.1,0-0.2c0.1-0.1,0.1-0.3,0.2-0.4l0.5-1.6
			l0.2-0.3c0.3-0.4,0.4-0.9,0.3-1.5l0.9-2l0.1-0.2l1.4-4.4c0-0.1,0.1-0.2,0.1-0.3l0.1-0.7l0.5-1.1c0-0.1,0.1-0.1,0.1-0.2l0.8-2.8
			v-0.1l0.4,0.8c0.1,0.1,0.1,0.2,0.2,0.3l1.8,2.2c0.1,0.1,0.2,0.2,0.4,0.3l1.5,1.1c0.1,0.1,0.2,0.1,0.4,0.2l1.9,0.8
			c0.1,0,0.2,0.1,0.3,0.1l2.2,0.4h0.2l1.3,0.1c0.3,0,0.6,0,0.8-0.2l0.2-0.1c0.2,0,0.4,0,0.6,0l0.6-0.1c0.2,0,0.3,0,0.5-0.1l0.6-0.2
			l0,0c0.4,0.1,0.8,0,1.1-0.1l2.4-1.1c0.1-0.1,0.3-0.1,0.4-0.2l0.4-0.4h0.2c0.4-0.1,0.7-0.3,0.9-0.5l0.4-0.4
			c0.3-0.1,0.6-0.3,0.8-0.5l0.9-0.9l2.9-0.3h0.2l1.1-0.2c0.3-0.1,0.5-0.2,0.7-0.4l0.2-0.2l1.1-0.4l0.2-0.1l3.4-1.8
			c0.2-0.1,0.3-0.2,0.5-0.4l0.8-0.8l1.2,3.6c0.1,0.2,0.2,0.4,0.3,0.5l1.5,2c0.1,0.1,0.2,0.2,0.3,0.3l1.6,1.3
			c0.1,0.1,0.2,0.2,0.4,0.2l0.5,0.2c0.2,0.1,0.4,0.1,0.6,0.2h0.2l1.1,0.5c0.2,0.1,0.4,0.1,0.6,0.2l1.5,0.2c0.2,0,0.4,0,0.6,0l0,0
			c0.2,0.1,0.5,0.1,0.7,0.1h1c0.1,0,0.3,0,0.4-0.1l1.1-0.3h0.2c0.4,0.1,0.7,0,1.1-0.1l0.4-0.2h0.1c0.4,0,0.8,0,1.1-0.2l0.7-0.4
			l1.8-0.8c0.2-0.1,0.5-0.3,0.6-0.5l0.1-0.2l2-1.3c0.3-0.2,0.5-0.4,0.6-0.7v0.2c0,0.1,0,0.3,0.1,0.4l0.3,1c0,0.1,0.1,0.2,0.1,0.3
			l0.4,0.8c0.1,0.1,0.2,0.3,0.3,0.4l0.6,0.6c0.4,0.4,0.9,0.5,1.4,0.5l0.1,0.1c0.2,0.2,0.5,0.3,0.8,0.3l1.5,0.2c0.1,0,0.3,0,0.4,0
			l1-0.1c0.2,0,0.3-0.1,0.4-0.1l1.5-0.6c0.1,0,0.2-0.1,0.3-0.2l3.5-2.3c0.2-0.1,0.3-0.3,0.5-0.5l0.5-0.7l0.9-1v0.1
			c0,0.2,0.1,0.3,0.1,0.4l0.8,1.9c0.1,0.3,0.4,0.6,0.7,0.8c0.1,0.2,0.3,0.3,0.4,0.5l0.7,0.5c0.1,0.1,0.2,0.1,0.4,0.2l1.7,0.7
			c0.1,0.1,0.3,0.1,0.4,0.1l1,0.1h0.3h0.2l2-0.2c0.2,0,0.4-0.1,0.6-0.2l1.6-0.8h0.1c0.4-0.1,0.7-0.2,0.9-0.5l0.5-0.5l0.7-0.4
			c0.2-0.1,0.3-0.2,0.5-0.4l0.3-0.4c0.1-0.2,0.2-0.3,0.3-0.5h0.1l0.8-0.6c0.2-0.1,0.3-0.3,0.4-0.5l1.2-2c0.1-0.2,0.2-0.3,0.2-0.5
			l0.6-0.4c0.2-0.2,0.4-0.4,0.6-0.6l0.2-0.5c0.1-0.1,0.1-0.3,0.1-0.4l0.2-0.1c0.2-0.2,0.4-0.5,0.5-0.8l0.3-0.7
			c0.2-0.1,0.3-0.3,0.4-0.5l0.7-1.3c0.1-0.2,0.2-0.4,0.2-0.6v-0.1c0.1-0.1,0.2-0.3,0.3-0.5l0.7-1.4c0.1-0.2,0.2-0.4,0.2-0.6l0.1-0.6
			c0.1-0.7-0.2-1.3-0.8-1.7l-0.2-0.1c-0.8-0.5-1.9-0.3-2.4,0.5c0,0.1-0.1,0.1-0.1,0.2l-0.1,0.1c-0.3,0.3-0.5,0.6-0.6,1.1l-0.1,0.6
			c-0.4,0.2-0.6,0.6-0.7,1l-0.2,0.6l-0.1,0.1c-0.2,0.2-0.3,0.4-0.4,0.6l-0.2,0.6c-0.3,0.2-0.6,0.5-0.7,0.9l-0.1,0.3l-0.8,1.2
			c-0.1,0.2-0.2,0.3-0.2,0.5l-0.2,0.5c-0.4,0.1-0.7,0.4-0.9,0.7l-0.4,0.7l-1.2,1.3l-0.1,0.1l-0.2,0.2l-2,1.6l-1.3,0.6l-1.8,0.3h-0.4
			c-0.1-0.1-0.3-0.1-0.4-0.2l-0.3-0.1l-0.6-0.4l-0.6-1.3l-0.1-0.6l0.1-1.4v-0.2l0.4-2.5l0.4-0.7c0.1-0.2,0.2-0.5,0.2-0.8v-0.3
			l0.5-1.2v-0.1c0.2-0.2,0.3-0.5,0.3-0.8v-0.1c0-0.1,0-0.1,0-0.2v-0.2c0.1-0.1,0.1-0.2,0.1-0.2l0.4-1c0.1-0.3,0.1-0.6,0.1-0.8
			c0-0.1,0.1-0.1,0.1-0.2l0.3-1c0.1-0.2,0.1-0.4,0.1-0.5v-0.4c0.2-0.2,0.3-0.5,0.4-0.7l0.4-1.2l0.2-0.3c0.2-0.4,0.3-0.8,0.2-1.2
			l0.1-0.2c0.2-0.2,0.3-0.5,0.3-0.7l0.2-1.2l0.4-0.9c0.1-0.1,0.1-0.3,0.1-0.4l0.6-2.7l0.3-0.5c0.1-0.2,0.2-0.3,0.2-0.5l0.4-0.9
			c0-0.1,0-0.3,0-0.4l0.2-0.4c0.2-0.3,0.3-0.6,0.3-1l0.2-0.3c0.2-0.3,0.3-0.6,0.3-0.9v-0.2l0.5-1c0.1-0.2,0.1-0.3,0.2-0.5l0.2-1.3
			l2-5.8l1.5-5.1c0-0.1,0-0.2,0.1-0.3l0.1-1c0.1-0.8-0.4-1.6-1.2-1.9l-0.4-0.1c-0.8-0.3-1.6,0.1-2.1,0.8l-0.3,0.4
			c-0.1,0.1-0.1,0.2-0.2,0.4l-0.3,1.1c-0.1,0.3-0.1,0.6,0,0.9l-0.4,0.8c0,0.1-0.1,0.1-0.1,0.2l-0.7,2c0,0.1-0.1,0.2-0.1,0.3
			l-0.2,0.9l-1.6,4.7v0.1l-0.5,1.9l-0.7,1.8c0,0.1-0.1,0.2-0.1,0.2l-0.4,1.9l-0.4,0.8c-0.2,0.3-0.3,0.7-0.2,1.1v0.1l-1.3,3.7
			c0,0.1-0.1,0.2-0.1,0.4l-0.1,0.7l-0.3,0.4c-0.1,0.2-0.2,0.4-0.3,0.6l-0.4,1.9l-0.6,1.4c-0.1,0.1-0.1,0.3-0.1,0.4l-0.1,0.4v0.1
			c0,0.1-0.1,0.2-0.1,0.3l-0.5,1.7l-0.1,0.1c-0.2,0.2-0.3,0.5-0.4,0.8l-0.4,1.9l-0.3,0.8l-0.1,0.2v0.1l-0.2,0.3
			c-0.1,0.1-0.1,0.2-0.1,0.3l-0.2,0.6l-0.3,0.4c-0.1,0.2-0.2,0.4-0.3,0.6c-0.2,0.2-0.4,0.3-0.5,0.6l-0.7,1.3l-1.1,1.5
			c-0.1,0.1-0.1,0.1-0.1,0.2l-0.4,0.7l-2.5,2.3L191,255l-0.6,0.2l-0.7,0.1l-0.7-0.1c-0.1,0-0.2,0-0.3,0s-0.2-0.1-0.3-0.1l-0.5-0.5
			l-0.3-0.5l-0.1-0.6l0.3-1.9c0-0.2,0-0.3,0-0.5c0.1-0.2,0.2-0.4,0.2-0.7l0.1-0.4c0-0.1,0-0.3,0-0.4c0,0,0-0.1,0.1-0.1l0.3-0.9
			l0.1-0.2l0.4-0.9c0-0.1,0.1-0.2,0.1-0.2l0.4-1.8l0.1-0.2c0.1-0.2,0.2-0.5,0.2-0.8c0.1-0.2,0.2-0.3,0.2-0.5l0.6-2.4l1.3-3.8
			c0.1-0.2,0.1-0.4,0.1-0.7c0.1-0.2,0.2-0.4,0.2-0.6l0.1-0.5c0.3-0.4,0.5-0.9,0.4-1.4c0.1-0.1,0.1-0.2,0.1-0.4l0.1-0.7l0.1-0.2
			c0.1-0.1,0.1-0.2,0.1-0.3l1.3-3.8c0.1-0.3,0.1-0.7,0-1l-0.1-0.5c-0.3-0.9-1.2-1.5-2.2-1.2c-0.1,0-0.2,0.1-0.3,0.1l-0.4,0.2
			c-0.2,0.1-0.4,0.3-0.6,0.4l-0.3,0.4c-0.2,0.2-0.3,0.4-0.4,0.7l-0.6,2.1L189,232c-0.1-0.1-0.2-0.2-0.3-0.3l-0.1-0.1l-0.4-1
			c-0.1-0.1-0.1-0.2-0.2-0.3l-0.6-0.8c-0.1-0.1-0.2-0.2-0.2-0.2l-1.5-1.2c-0.1-0.1-0.3-0.2-0.4-0.3l-1.9-0.9c-0.1,0-0.2-0.1-0.2-0.1
			l-1.1-0.3c-0.2-0.1-0.4-0.1-0.6-0.1l-0.3-0.1c-0.1,0-0.3-0.1-0.4-0.1l-1.5-0.1c-0.2,0-0.5,0-0.7,0.1h-0.1c-0.1,0-0.3,0-0.4,0
			l-1.5,0.1c-0.1,0-0.3,0-0.4,0.1l-3.8,1.2c-0.3,0.1-0.6,0.3-0.8,0.5c-0.2,0-0.4,0.1-0.6,0.3l-1.2,0.8c-0.1,0.1-0.3,0.2-0.4,0.3
			l-0.2,0.3c-0.3,0.1-0.5,0.3-0.7,0.5l-1.8,2c-0.1,0.1-0.2,0.3-0.3,0.4c-0.3,0.2-0.6,0.4-0.8,0.8l-0.4,0.8l-1,1.5
			c-0.1,0.1-0.2,0.3-0.2,0.4l-0.2,0.5c-0.2,0.2-0.4,0.4-0.5,0.7l-0.9,2.1c-0.1,0.1-0.1,0.2-0.1,0.4l-0.2,1.3l-0.4,1
			c0,0.1-0.1,0.2-0.1,0.3l-0.2,1.1l-0.2,0.4c-0.1,0.1-0.1,0.2-0.1,0.3v0.1c-0.3,0.2-0.5,0.4-0.6,0.7l-0.1,0.3l-0.6,0.6l-0.1,0.1
			c-0.2,0.1-0.4,0.2-0.6,0.4l-0.9,1l-3.1,2.1l-0.7,0.2l1.9-4.7c0.1-0.3,0.2-0.6,0.1-0.9l0.2-0.4c0.1-0.2,0.1-0.4,0.1-0.6l0.1-1.4
			l0.2-0.9c0.1-0.3,0.1-0.6,0-1l0.2-1.3c0-0.1,0-0.2,0-0.4l-0.1-1.9c0-0.1,0-0.1,0-0.2l-0.3-1.8c0-0.1,0-0.2-0.1-0.3l-0.3-0.9
			c0-0.1-0.1-0.2-0.1-0.3l-1.5-2.5c-0.1-0.1-0.2-0.3-0.3-0.4l-1.5-1.4c-0.2-0.2-0.4-0.3-0.6-0.4h-0.1l-0.2-0.2
			c-0.2-0.2-0.5-0.4-0.8-0.5l-1.5-0.6c-0.2-0.1-0.3-0.1-0.5-0.1h-0.8l-0.7-0.2h-0.2l-2.1-0.2c-0.2,0-0.4,0-0.6,0.1l-0.8,0.2
			l-2.8,0.4l-0.3,0.1l-1,0.3c-0.2,0.1-0.4,0.2-0.6,0.3c-0.3,0-0.5,0.1-0.7,0.3l-2.1,1.5c0-0.1,0-0.2,0-0.2v-0.6c0-1-0.8-1.7-1.8-1.7
			c-0.5,0-1,0.3-1.4,0.7l-0.8,1.1c-0.1,0.1-0.2,0.3-0.2,0.5l-0.6,1.5c0,0.1,0,0.1-0.1,0.2l-0.5,2.1c0,0.1-0.1,0.3-0.1,0.4
			c-0.2,0.3-0.4,0.6-0.4,1l-0.1,0.9c-0.1,0.2-0.2,0.4-0.3,0.5l-0.7,2.2c0,0.1-0.1,0.2-0.1,0.4c-0.1,0.1-0.1,0.2-0.2,0.4l-0.1,0.4
			c-0.1,0.3-0.1,0.5-0.1,0.8l-0.1,0.2c-0.1,0.1-0.1,0.3-0.2,0.4l-0.6,1.9v0.1l-0.5,1.9l-0.5,1c0,0.1-0.1,0.2-0.1,0.2l-0.2,0.2
			c-0.1,0.1-0.1,0.2-0.2,0.2l-1,1.8l-1.1,1.5c-0.1,0.1-0.2,0.3-0.2,0.4l-0.2,0.5l-0.3,0.2c-0.3,0.2-0.5,0.5-0.7,0.8l-0.1,0.2
			l-1.1,1.2c-0.1,0.1-0.1,0.1-0.1,0.2l-0.3,0.5l-0.5,0.2c-0.2,0.1-0.4,0.2-0.5,0.4l-0.5,0.6l-0.5,0.4l-0.8,0.4
			c-0.1,0.1-0.3,0.1-0.4,0.2l-1,0.1l-1.4-0.2l-0.3-0.1l-0.2-0.2l-0.1-1c0-0.2-0.1-0.4-0.1-0.5v-0.1l0.4-3.7l0.2-0.3
			c0.2-0.3,0.3-0.6,0.4-0.9l0.1-0.8l0.5-1.7c0-0.1,0.1-0.2,0.1-0.3l0.1-0.1l0.2-0.4c0.1-0.1,0.1-0.3,0.1-0.4l0.4-1.6l0.2-0.4
			c0.2-0.3,0.2-0.6,0.2-0.9l0,0l0.1-0.2l0.4-0.8c0.1-0.1,0.1-0.2,0.1-0.3l0.4-1.6c0-0.1,0-0.2,0-0.3v-0.4c0.2-0.2,0.3-0.5,0.4-0.7
			l2-6.6v-0.1l0.4-1.9c0.1-0.7-0.1-1.4-0.7-1.8c-0.6-0.4-1.3-0.4-1.9-0.1l-0.4,0.2c-0.2,0.1-0.4,0.3-0.6,0.5l-0.3,0.4
			c-0.2,0.2-0.2,0.5-0.3,0.8l-0.1,0.7l-0.1,0.3c-0.1,0.1-0.1,0.3-0.2,0.4l-0.3,1l-0.1,0.2c-0.2,0.3-0.3,0.7-0.2,1l0,0
			c-0.1,0.1-0.2,0.3-0.2,0.5l-0.8,2.7v0.1c-0.3,0.4-0.3,0.8-0.3,1.3l-0.2,0.4c-0.1,0.1-0.1,0.3-0.2,0.5l-0.4,1.7l-0.2,0.3
			c-0.2,0.3-0.3,0.6-0.3,1v0.4l-0.2,0.3c-0.1,0.2-0.2,0.4-0.2,0.7l-0.1,0.6l-0.5,0.9l-0.1,0.3l-0.6,1.6l-2.8,4l-1.2,1.4l-0.7,0.5
			c-0.2,0.2-0.4,0.5-0.5,0.8l-0.4,0.2l-0.2,0.1l-1.6,1l-1.7,1l-0.6,0.2l-0.7,0.1c-0.2,0-0.4,0.1-0.6,0.2L101,256h-0.6l-1.6-0.1
			l-1.2-0.5l-0.4-0.3l-0.9-1l-0.2-0.4l-0.4-1.6V250l0.1-0.1c0.1-0.2,0.2-0.4,0.2-0.7v-0.8l0.9-2.7c0,0,0-0.1,0.1-0.1l0.2-0.4
			c0.1-0.1,0.1-0.2,0.2-0.4l0.4-1.5c0.1-0.2,0.1-0.4,0.1-0.6v-0.1v-0.1c0-0.1,0-0.1,0-0.2c0.1-0.2,0.2-0.4,0.3-0.6l0.1-0.8l0.4-0.7
			c0-0.1,0.1-0.2,0.1-0.2l0.9-3l0.7-1.9c0.1-0.2,0.1-0.4,0.1-0.6v-0.3l0.5-1c0.1-0.2,0.1-0.3,0.2-0.5l0.2-1.2l0,0
			c0.1-0.1,0.1-0.2,0.2-0.4l0.4-1c0.1-0.2,0.1-0.4,0.1-0.6v-1c0-0.6-0.3-1.2-0.9-1.5c-0.5-0.3-1.2-0.3-1.7,0l-0.4,0.3
			c-0.3,0.2-0.5,0.4-0.7,0.7l-0.3,0.5c-0.1,0.1-0.1,0.2-0.1,0.4l-0.7,2.9c-0.2,0.2-0.4,0.5-0.4,0.8l-0.3,1.2l-0.1,0.1
			c-0.2,0.3-0.3,0.7-0.3,1.1c-0.1,0.2-0.2,0.4-0.2,0.6l-0.1,0.8l-0.2,0.2c-0.2,0.3-0.3,0.6-0.3,1c-0.3,0.3-0.4,0.7-0.4,1.1v0.3
			l-0.6,1.3c-0.1,0.2-0.1,0.4-0.1,0.6l-0.1,0.8l-0.7,1.8c0,0.1,0,0.1-0.1,0.2l-0.3,1l-1,2.1c-0.3,0.2-0.6,0.5-0.7,0.8l-1.1,2.2
			l-0.9,1c-0.1,0.1-0.2,0.2-0.3,0.4l-0.4,0.8c0,0,0,0.1-0.1,0.1c-0.2,0.1-0.3,0.1-0.4,0.2l-0.4,0.3c-0.2,0.2-0.3,0.4-0.4,0.6
			l-0.1,0.3l-0.3,0.1c-0.2,0.1-0.4,0.2-0.6,0.4l-1,1l-0.8,0.5l-1.6,0.4l-1.3,0.1l-0.3-0.3l-0.4-0.5l-0.2-0.4v-0.6l0.2-1.9l0.5-2.6
			l0.3-0.4c0.2-0.2,0.3-0.5,0.3-0.8l0.1-0.9l0.1-0.2l0,0c0.2-0.2,0.4-0.5,0.5-0.8l1.1-4.4L84,242c0.1-0.1,0.1-0.2,0.2-0.4l0.3-0.8
			l0.2-0.3c0.2-0.3,0.3-0.7,0.2-1.1c0-0.1,0-0.2,0-0.2l0.1-0.4c0-0.1,0-0.3,0-0.4c0-0.1,0-0.2,0-0.2l0.2-1.5c0-0.3,0-0.7-0.2-1
			l-0.1-0.2l-0.1-1c0-0.2-0.1-0.4-0.2-0.6l-0.7-1.3c-0.1-0.2-0.2-0.3-0.4-0.5l-1.4-1.2c-0.1-0.1-0.2-0.2-0.4-0.2l-2.6-1.3l-0.2-0.1
			l-1.8-0.7c-0.2-0.1-0.4-0.1-0.6-0.1l0,0H76c-0.2-0.2-0.5-0.3-0.8-0.4l-0.4-0.1l0.1-0.8c0.1-0.7-0.3-1.5-1-1.8l-0.5-0.2
			c-0.2-0.1-0.5-0.2-0.8-0.2h-0.5c-0.2,0-0.5,0.1-0.7,0.2l-0.8,0.4c-0.4,0.2-0.7,0.4-0.8,0.8l-0.2,0.4c-0.1,0.2-0.2,0.5-0.2,0.8v0.5
			c0,0.2,0,0.4,0.1,0.6l0.4,1v0.2l-0.3,0.6C69.5,230.2,69.5,230.3,69.5,230.3z M165.4,244.7l0.3-0.5c0.1-0.2,0.2-0.4,0.2-0.6
			l0.1-0.4c0.1-0.3,0-0.6-0.1-0.9l0.3-0.9l0.3-0.7c0.1-0.2,0.2-0.5,0.2-0.8v-0.2l0.2-0.2c0.1-0.1,0.2-0.3,0.2-0.5l0.2-0.7l1.8-2.6
			l2.4-2.7c0.1,0,0.2-0.1,0.3-0.1l0.4-0.3c0.2-0.1,0.3-0.2,0.4-0.4l0.3-0.1c0.2-0.1,0.3-0.1,0.5-0.3l0.8-0.6l0.5-0.1
			c0.3,0,0.5-0.1,0.7-0.3l0.8-0.5l1.9-0.2c0.2,0,0.4-0.1,0.5-0.1l1,0.2c0.1,0,0.3,0,0.4,0h0.6l0.3,0.1c0.1,0.1,0.3,0.1,0.4,0.1
			c0.2,0.1,0.3,0.2,0.5,0.2l1.1,0.3l0,0c0.2,0.3,0.5,0.5,0.8,0.7l0.4,0.1l1.1,1.4l0.2,0.8c0.1,0.4,0.3,0.7,0.6,0.9l0.1,1.1
			c0,0.2,0.1,0.3,0.1,0.5l0.1,0.2c-0.1,0.2-0.1,0.5-0.1,0.7l0.1,1.2l-0.2,2l-0.3,1.8l-0.5,1.5c-0.1,0.2-0.1,0.5-0.1,0.7v0.1
			c-0.1,0.1-0.1,0.2-0.2,0.3l-0.4,0.9c0,0.1-0.1,0.2-0.1,0.3l-0.1,0.5l-0.1,0.1l-0.8,1.4c-0.1,0.2-0.1,0.3-0.2,0.5v0.1l-0.4,0.4
			l-0.1,0.1l-2.4,3l-2.7,1.7l-1.6,0.8l-1.6,0.5l-1.8,0.3l-1.9-0.2h-0.5l-1.9-0.8l-0.6-0.4l-1.3-1.1l-0.4-0.4l-1.2-2.9V247
			L165.4,244.7z M138.7,236.5l0.4-1.2c0-0.4,0.1-0.7,0.3-1l0.2-0.4c0.1-0.1,0.1-0.2,0.1-0.4l0.1-0.1l0.3-0.4
			c0.1-0.1,0.2-0.2,0.2-0.3l0.2-0.4l0.7-0.4c0.2-0.1,0.4-0.3,0.6-0.5l1.4-0.7l0.6-0.1h3c0.1,0,0.2,0,0.4,0h0.1l1.9,0.6
			c0.1,0,0.3,0.1,0.4,0.1l1,0.9l1.1,1.2l0.8,1.8l0.3,1.6l0.1,1.9v3.3l-0.2,0.2c-0.2,0.3-0.3,0.6-0.3,0.9l-0.1,1.4
			c-0.3,0.2-0.5,0.6-0.6,0.9l-0.1,0.3l-2,4.1l-0.5,0.5c-0.1,0.1-0.2,0.2-0.3,0.3l-0.1,0.2h-0.4l-2.9-0.6h-0.2
			c-0.2-0.2-0.5-0.4-0.7-0.5l-0.3-0.1l-1.4-0.9l-0.5-0.5l-2.1-2.9l-1.3-4l-0.2-1.8V236.5z M131.8,246.6c0.2-0.4,0.2-0.9,0.1-1.3
			c0.1-0.2,0.1-0.4,0.1-0.6v-0.2l0.3-0.6c0.1-0.2,0.1-0.5,0.1-0.7v-0.4v-0.1l1.1-3.4c0.4-0.2,0.7-0.6,0.8-1l0.2-0.8l0.1-0.2
			l-0.1,0.8c0,0.1,0,0.2,0,0.2v1c0,0.1,0,0.2,0,0.3l0.6,3.9c0,0.1,0.1,0.3,0.1,0.4l1.2,2.8c0,0.1,0.1,0.1,0.1,0.2l0.5,0.9
			c0,0.1,0.1,0.2,0.2,0.2l0.4,0.5l0.1,0.2c0.1,0.2,0.1,0.3,0.2,0.4l0.4,0.5l0.1,0.2c0.1,0.2,0.3,0.5,0.5,0.6l2,1.7
			c0.2,0.1,0.3,0.2,0.5,0.3l0.2,0.1c0.2,0.3,0.5,0.6,0.9,0.7l2.2,0.7l-0.6,0.4l0,0c-0.2,0-0.3,0.1-0.5,0.1l-0.6,0.2
			c-0.1,0-0.2,0.1-0.3,0.2c-0.3,0-0.5,0.1-0.7,0.2l-0.7,0.3c-0.3-0.1-0.7-0.1-1,0l-0.6,0.2h-0.6l-2.8-0.4l-0.4-0.2
			c-0.2-0.1-0.3-0.1-0.5-0.1l-0.2-0.2c-0.1-0.1-0.2-0.1-0.2-0.2l-0.7-0.5l-1-1.1c-0.1-0.2-0.1-0.3-0.2-0.4l-0.4-0.6l-0.7-1.9l0,0
			v-0.2c0-0.3,0-0.7-0.1-1l-0.1-1.8C131.8,246.8,131.8,246.7,131.8,246.6L131.8,246.6z"/>
		<path class="st0" d="M408.2,241.6l-0.2-0.3c-0.5-0.8-1.6-1.1-2.4-0.6c-0.2,0.1-0.4,0.3-0.6,0.6l-0.2,0.4c-0.1,0.2-0.2,0.4-0.2,0.6
			l-0.1,0.1c-0.2,0.2-0.4,0.4-0.6,0.6l-0.3,0.5c-0.1,0.1-0.1,0.2-0.1,0.3v0.1c-0.3,0.2-0.5,0.4-0.6,0.7l-0.1,0.3l-0.6,0.6l-0.1,0.1
			c-0.2,0.1-0.4,0.2-0.6,0.4l-0.9,1l-3.1,2.1l-0.7,0.2l2-4.7c0.1-0.3,0.2-0.6,0.1-0.9l0.2-0.4c0.1-0.2,0.1-0.4,0.1-0.6l0.1-1.4
			l0.2-0.9c0.1-0.3,0.1-0.6,0-1l0.2-1.3c0-0.1,0-0.2,0-0.4l-0.1-2c0-0.1,0-0.1,0-0.2l-0.3-1.8c0-0.1,0-0.2-0.1-0.3l-0.3-0.9
			c0-0.1-0.1-0.2-0.1-0.3l-1.5-2.5c-0.1-0.1-0.2-0.3-0.3-0.4l-1.5-1.4c-0.2-0.2-0.4-0.3-0.6-0.4h-0.1l-0.2-0.2
			c-0.2-0.2-0.5-0.4-0.8-0.5l-1.5-0.6c-0.2-0.1-0.3-0.1-0.5-0.1h-0.9l-0.7-0.2H390l-2-0.2c-0.2,0-0.4,0-0.6,0.1l-0.8,0.2l-2.8,0.4
			c-0.1,0-0.2,0-0.3,0.1l-1,0.3c-0.2,0.1-0.4,0.2-0.6,0.3c-0.3,0-0.5,0.1-0.7,0.3l-2.1,1.5c0-0.1,0-0.2,0-0.2v-0.5
			c0-1-0.8-1.7-1.8-1.7c-0.5,0-1,0.3-1.4,0.7l-0.8,1.1c-0.1,0.1-0.2,0.3-0.3,0.5l-0.6,1.5c0,0.1,0,0.1-0.1,0.2l-0.5,2.1
			c0,0.1,0,0.2,0,0.4c-0.2,0.3-0.4,0.6-0.4,1l-0.1,0.9c-0.1,0.2-0.2,0.3-0.3,0.5l-0.7,2.2c0,0.1-0.1,0.2-0.1,0.4
			c-0.1,0.1-0.1,0.2-0.2,0.4l-0.1,0.4c-0.1,0.3-0.1,0.5-0.1,0.8l-0.1,0.2c-0.1,0.1-0.1,0.2-0.2,0.4l-0.6,2v0.1l-0.5,1.9l-0.5,1
			c-0.1,0.2-0.1,0.3-0.1,0.5L369,246c-0.1,0.1-0.2,0.3-0.2,0.4l-0.1,0.4c-0.2,0.2-0.3,0.4-0.4,0.6l-0.1,0.3l-2,2.6
			c-0.1,0.1-0.2,0.3-0.2,0.4v0.1l-0.4,0.4c-0.1,0.1-0.2,0.2-0.2,0.3l-0.8,1.1l0,0c-0.3,0.1-0.6,0.3-0.8,0.6l-0.6,0.8l-0.2,0.1
			c-0.1,0.1-0.3,0.1-0.4,0.2l-0.5,0.4l-0.6,0.2c-0.2,0.1-0.5,0.2-0.6,0.3l-0.1,0.1c-0.2,0-0.4,0-0.6,0.1l-0.3,0.1
			c-0.1,0-0.3,0-0.4,0h-0.6l-0.4-0.1l-0.5-0.8v-2.9l0.1-0.6l0.2-0.4c0.1-0.2,0.1-0.3,0.2-0.5l0.2-1.1l0,0c0.2-0.2,0.3-0.4,0.4-0.6
			l0.8-2.8c0-0.2,0.1-0.3,0.1-0.5V245l0.6-1.6c0-0.1,0.1-0.1,0.1-0.2l0.6-2.1c0-0.1,0-0.2,0-0.2v-0.3c0.2-0.2,0.3-0.5,0.4-0.8
			l0.2-1.3l0.4-1.3c0-0.2,0.1-0.3,0.1-0.5v-0.4c0-0.1,0-0.2,0-0.3s0-0.2,0.1-0.3l0.1-0.4c0-0.2,0-0.4,0-0.6l-0.2-1.2v-0.8
			c0-0.2,0-0.4-0.1-0.6l-0.6-1.5c0-0.1-0.1-0.2-0.2-0.3l-1.1-1.6c-0.2-0.2-0.4-0.4-0.7-0.6l-0.5-0.2l-0.1-0.1l-0.3-0.3
			c-0.3-0.3-0.7-0.5-1.2-0.5c-0.2-0.2-0.5-0.3-0.7-0.3l-1.5-0.3c-0.1,0-0.2,0-0.4,0h-1c-0.3,0-0.6,0.1-0.8,0.2h-0.4
			c-0.1,0-0.3,0-0.4,0l-1.1,0.2c-0.1,0-0.2,0.1-0.4,0.1l-2.6,1c-0.2,0.1-0.3,0.2-0.5,0.3l-1.4,1.1H346c-0.5,0.1-1,0.5-1.2,1
			l-0.1,0.1c-0.1,0.1-0.2,0.1-0.3,0.2L343,232c-0.1,0.1-0.1,0.1-0.2,0.2l-0.1,0.2l-0.2-0.8c-0.1-0.3-0.2-0.5-0.4-0.7l-0.5-0.5v-0.1
			l-0.1-0.4c-0.1-0.3-0.2-0.5-0.5-0.8l-0.7-0.7c-0.1-0.1-0.2-0.1-0.2-0.2l-1.6-1.1c-0.2-0.2-0.5-0.2-0.8-0.3l-3-0.4
			c-0.1,0-0.1,0-0.2,0h-1.2H333l-1.1,0.2l-0.3,0.1l-2.4,0.9c-0.5,0.4-1,0.7-1.5,0.9l-1,0.8l-0.6,0.4v-1c0-1-0.8-1.7-1.8-1.7
			c-0.3,0-0.7,0.1-1,0.3l-0.4,0.2c-0.2,0.1-0.4,0.3-0.5,0.5l-0.3,0.4c-0.1,0.2-0.2,0.4-0.3,0.6l-0.3,1.5c-0.3,0.3-0.5,0.8-0.5,1.2
			v0.2l-0.2,0.4c-0.2,0.3-0.3,0.6-0.3,0.9v0.2c-0.2,0.2-0.3,0.5-0.3,0.8v0.2l-0.1,0.1c-0.3,0.4-0.3,0.9-0.2,1.4l-0.1,0.1l-0.5,0.9
			c-0.1,0.1-0.1,0.2-0.1,0.3l-0.5,1.9c-0.1,0.1-0.1,0.2-0.1,0.3l-1.3,4.2l-0.1,0.2l-0.1,0.6l-0.5,0.9c-0.1,0.1-0.1,0.2-0.1,0.3
			l-0.2,0.6l-0.3,0.4c-0.1,0.2-0.2,0.4-0.3,0.6c-0.2,0.2-0.4,0.3-0.5,0.6l-0.7,1.3l-1.1,1.5c-0.1,0.1-0.1,0.1-0.1,0.2l-0.4,0.7
			l-2.5,2.3l-2.2,1.4l-0.6,0.2l-0.7,0.1l-0.7-0.1h-0.3l-0.3-0.1l-0.5-0.5l-0.3-0.5l-0.1-0.6l0.3-1.9c0-0.2,0-0.3,0-0.5
			c0.1-0.2,0.2-0.4,0.2-0.7l0.1-0.4c0-0.1,0-0.3,0-0.4v-0.1l0.3-0.9c0-0.1,0.1-0.2,0.1-0.2l0.4-0.9c0-0.1,0.1-0.2,0.1-0.2l0.5-1.8
			l0.1-0.2c0.1-0.2,0.2-0.5,0.2-0.8c0.1-0.1,0.2-0.3,0.2-0.5l0.6-2.4l1.3-3.8c0-0.4,0.1-0.9,0.3-1.3l0.1-0.5
			c0.3-0.4,0.5-0.9,0.4-1.4c0.1-0.1,0.1-0.2,0.1-0.4l0.1-0.7l0.1-0.2c0.1-0.1,0.1-0.2,0.1-0.3l1.3-3.8c0.1-0.3,0.1-0.7,0-1l-0.1-0.5
			c-0.1-0.5-0.5-0.9-1-1.2c-0.5-0.2-1-0.2-1.5,0l-0.4,0.2c-0.2,0.1-0.4,0.3-0.6,0.4l-0.3,0.4c-0.2,0.2-0.3,0.4-0.4,0.7l-0.5,2.1
			l-0.5,1.4c-0.1-0.1-0.2-0.2-0.3-0.2l-0.1-0.1l-0.5-1c0-0.1-0.1-0.2-0.1-0.4l-0.6-0.8c-0.1-0.1-0.1-0.2-0.2-0.2l-1.5-1.3
			c-0.1-0.1-0.3-0.2-0.4-0.3l-1.9-0.9l-0.2-0.1l-1.1-0.3c-0.2-0.1-0.4-0.1-0.6-0.1l-0.3-0.1c-0.1,0-0.3-0.1-0.4-0.1l-1.5-0.1
			c-0.2,0-0.5,0-0.7,0.1h0.1c-0.1,0-0.3,0-0.4,0l-1.5,0.1c-0.1,0-0.3,0-0.4,0.1l-3.8,1.2c-0.3,0.1-0.6,0.3-0.8,0.5
			c-0.2,0-0.4,0.1-0.6,0.3l-1.2,0.8c-0.1,0.1-0.3,0.2-0.4,0.3l-0.2,0.3c-0.3,0.1-0.5,0.3-0.7,0.5l-1.8,2c-0.1,0.1-0.2,0.3-0.3,0.4
			c-0.4,0.2-0.6,0.5-0.8,0.8l-0.4,0.8l-1,1.5c-0.1,0.1-0.2,0.3-0.2,0.4l-0.2,0.5c-0.2,0.2-0.4,0.4-0.5,0.7l-0.9,2.1
			c0,0.1-0.1,0.3-0.1,0.4l-0.2,1.3l-0.4,1c0,0.1-0.1,0.2-0.1,0.3l-0.3,1.7c0,0,0,0,0,0.1l-0.2,0.2c-0.1,0.1-0.1,0.1-0.1,0.2
			l-2.1,3.3l-1.8,2.1l0,0c-0.2,0.2-0.4,0.3-0.5,0.6l-0.5,0.6c-0.1,0.1-0.2,0.3-0.3,0.5l-0.1,0.1c-0.2,0.1-0.4,0.2-0.5,0.4l-1,1.2
			l-0.6,0.3c-0.2,0.1-0.3,0.2-0.5,0.3l-0.6,0.6l-1.5,1.1l-2.7,1.7c-0.3,0-0.6,0.1-0.9,0.2l-1.2,0.6l-1.6,0.6l-1.9,0.4
			c-0.3,0.1-0.5,0.2-0.7,0.4h-0.1c-0.2,0-0.3-0.1-0.5,0l-1.8,0.1h-0.2c-0.3-0.1-0.5-0.1-0.8,0l-0.7,0.1l-1.2-0.1l-2-0.4H252h-0.4
			l0,0c-0.2-0.1-0.4-0.2-0.6-0.2l-1.1-0.2l-2.7-1.7L247,257l-0.5-0.2l-0.5-0.5c-0.1-0.1-0.2-0.2-0.3-0.3l-1.5-1.1l-0.4-0.5l-0.1-0.2
			c-0.1-0.3-0.4-0.6-0.6-0.8l-0.4-0.2c-0.1-0.4-0.3-0.7-0.6-0.9l-0.1-0.4c0-0.1-0.1-0.2-0.1-0.3l-1.4-2.5l-0.1-0.8l-0.1-0.2
			l-0.6-1.7l-0.1-0.8c0-0.3-0.1-0.7-0.3-0.9l-0.1-0.1v-0.4c0-0.2,0-0.4,0-0.7l-0.1-0.5v-0.2c0.1-0.4,0-0.7-0.1-1v-1.2l0.9-7.8
			l0.7-1.6v-0.1l1.3-3.6l1.1-1.4c0-0.1,0.1-0.1,0.1-0.2l1-1.8l0.5-0.6c0.1-0.1,0.2-0.3,0.3-0.5l0.3-0.6l0.6-0.4
			c0.3-0.2,0.5-0.5,0.6-0.8l0.1-0.3l0.5-0.4c0.1-0.1,0.2-0.1,0.3-0.2l0.8-0.8c0.3-0.1,0.6-0.3,0.9-0.6l2.2-1.7l0.8-0.4l0.2-0.1
			l1.6-1l4.8-1.5l0.8-0.1h1.5c0.2,0,0.4,0,0.6-0.1l0.3-0.1l1.3,0.1c0.3,0,0.5,0,0.8-0.1l0,0l0.9,0.2h0.1l1.5,0.2l0.2,0.2
			c0.2,0.1,0.3,0.2,0.5,0.2l1.2,0.3l1.7,1l1.4,1.2l0.2,0.3l0.6,1.4c0.1,0.1,0.1,0.3,0.2,0.4l0.2,2.3v0.4l-0.2,0.1l-0.4,0.2
			c-0.3,0.1-0.5,0.3-0.7,0.5l-0.3,0.4c-0.1,0.2-0.2,0.4-0.3,0.6l-0.1,0.4c-0.1,0.3-0.1,0.7,0,1l0.1,0.4c0.1,0.3,0.2,0.6,0.5,0.8
			l0.3,0.3c0.3,0.3,0.6,0.4,1,0.5l0.5,0.1c0.3,0,0.5,0,0.8-0.1l0.4-0.1c0.3-0.1,0.5-0.2,0.7-0.5l0.8-0.9c0.1-0.1,0.2-0.3,0.3-0.4
			l0.3-0.5c0-0.1,0.1-0.2,0.1-0.3l0.3-1c0.1-0.2,0.1-0.4,0.1-0.5v-3.6c0-0.3-0.1-0.7-0.3-0.9l-0.2-0.3l0,0c0-0.3-0.1-0.7-0.3-0.9
			l-1.7-2.6c-0.1-0.1-0.2-0.2-0.2-0.3l-0.8-0.8c-0.1-0.1-0.2-0.2-0.4-0.3l-0.5-0.3l-0.2-0.3c-0.2-0.3-0.5-0.6-0.9-0.7l-4.3-2
			c-0.1,0-0.2-0.1-0.4-0.1l-2.2-0.3h-0.1l-2.8-0.2c-0.2,0-0.5,0-0.7,0.1l-0.2,0.1c-0.3-0.1-0.7-0.2-1-0.1l-4.7,0.9l-0.3,0.1
			l-1.3,0.5c-0.1,0-0.2,0.1-0.3,0.2l-1.2,0.7l0,0c-0.2,0-0.5,0.1-0.7,0.1l-1,0.4c-0.2,0.1-0.3,0.1-0.4,0.2l-0.6,0.5l-1.7,0.9
			c-0.2,0.1-0.4,0.3-0.6,0.5l-0.2,0.3l0,0c-0.5,0.4-1.1,0.8-1.6,1.2l-0.6,0.8l-0.7,0.6c-0.2,0.2-0.4,0.4-0.5,0.7l-0.1,0.3l-1.1,1.1
			c-0.2,0.2-0.3,0.4-0.4,0.6l-0.1,0.3c-0.2,0.1-0.3,0.3-0.5,0.4l-0.6,0.8c-0.1,0.2-0.2,0.4-0.3,0.6l-0.4,0.4
			c-0.1,0.1-0.2,0.2-0.3,0.4l-1,1.6c-0.1,0.2-0.2,0.4-0.2,0.5c-0.2,0.2-0.4,0.4-0.4,0.7l-1.7,5c0,0.1,0,0.1,0,0.2l-0.9,4
			c0,0.1,0,0.1,0,0.2l-0.2,2.1c0,0.1,0,0.2,0,0.3l0.1,1.4l-0.1,0.3c-0.1,0.2-0.1,0.4-0.1,0.7l0.1,1.6c0,0.2,0,0.3,0.1,0.5l0.3,1
			l-0.1,0.6c-0.1,0.4,0,0.8,0.1,1.1l0.2,0.4c0,0.2,0,0.4,0,0.5l0.2,1c0,0.1,0,0.1,0.1,0.2l1.1,3.2v0.1l1.2,2.8
			c0.1,0.2,0.2,0.3,0.3,0.4l0.6,0.7l0,0c0.1,0.3,0.2,0.6,0.4,0.8l1.9,2.3l0.1,0.1l1.5,1.4l0.1,0.1l1.6,1.2l0.2,0.1l1.7,1.1
			c0.2,0.1,0.4,0.2,0.6,0.2c0.2,0.2,0.4,0.3,0.7,0.4l2.2,0.8h0.2l2,0.4h0.2l3.2,0.3h0.2l2.1-0.1h0.2l1.1-0.2c0.1,0,0.2-0.1,0.4-0.1
			h0.4h0.3c0.2,0.1,0.5,0.1,0.8,0l2-0.6h0.1l4.9-1.8c0.4-0.1,0.7-0.4,0.9-0.8l0.4-0.1c0.1,0,0.2-0.1,0.3-0.1l0.9-0.6l0.3-0.2
			l0.5-0.5l1.1-0.6l0.2-0.1l1.7-1.3l0.2-0.1l0.8-0.8l0.1-0.2l1.2-1.5l1.3-1.2c0.2-0.2,0.3-0.3,0.4-0.6l0.3-0.6l0.7-0.8l1,2.9
			c0.1,0.2,0.1,0.4,0.3,0.5l1.5,2c0.1,0.1,0.2,0.2,0.3,0.3l1.6,1.3c0.1,0.1,0.2,0.2,0.4,0.2l0.5,0.2c0.2,0.1,0.4,0.1,0.6,0.2h0.2
			l1.1,0.5c0.2,0.1,0.4,0.2,0.6,0.2l1.5,0.2c0.2,0,0.4,0,0.6,0l0,0c0.2,0.1,0.5,0.1,0.7,0.1h1c0.1,0,0.3,0,0.4-0.1l1.1-0.3h0.2
			c0.4,0,0.8-0.1,1.1-0.3l0.4-0.2h0.1c0.4,0,0.8,0,1.1-0.2l0.7-0.4l1.8-0.8c0.2-0.1,0.5-0.3,0.6-0.5l0.2-0.2l2-1.3
			c0.3-0.2,0.5-0.4,0.6-0.7v0.2c0,0.1,0,0.3,0.1,0.4l0.3,0.9c0,0.1,0.1,0.2,0.1,0.3l0.5,0.8c0.1,0.1,0.2,0.2,0.3,0.4l0.6,0.6
			c0.4,0.4,0.9,0.5,1.4,0.5l0.1,0.1c0.2,0.2,0.5,0.3,0.8,0.3l1.5,0.2c0.1,0,0.3,0,0.4,0l1-0.1c0.2,0,0.3-0.1,0.5-0.1l1.5-0.6
			c0.1,0,0.2-0.1,0.3-0.2l3-2c0,0.1,0,0.2,0,0.2l0.1,0.5c0.1,1,1,1.6,2,1.5c0.3,0,0.7-0.2,0.9-0.4l0.7-0.6c0.2-0.2,0.4-0.5,0.5-0.8
			l0.9-2.7c0-0.1,0.1-0.2,0.1-0.4c0.2-0.2,0.3-0.5,0.3-0.8v-0.3l0.3-0.7c0-0.1,0.1-0.2,0.1-0.4l0.1-0.7V250c0.1-0.1,0.2-0.3,0.2-0.5
			l1-3v-0.1l0.3-1.2l0.1-0.2c0.2-0.2,0.3-0.5,0.3-0.8v-0.3c0.1-0.1,0.1-0.2,0.2-0.3l0.4-1c0.1-0.3,0.1-0.6,0.1-0.9l1.5-3.1l0.4-0.6
			c0.1-0.1,0.2-0.3,0.2-0.4c0.2-0.2,0.3-0.3,0.4-0.5l0.2-0.6c0-0.1,0.1-0.1,0.1-0.2c0.2-0.2,0.4-0.5,0.5-0.8l1-1
			c0.1-0.1,0.2-0.3,0.3-0.4l0.2-0.4c0-0.1,0.1-0.2,0.1-0.3c0.1-0.1,0.2-0.1,0.2-0.2l0.7-0.7c0.1-0.1,0.2-0.2,0.2-0.3l0,0
			c0.2-0.1,0.3-0.2,0.5-0.3l1.5-1.3c0.5,0,1-0.2,1.3-0.6l0.9-0.3c0.1,0,0.2-0.1,0.3-0.1l0.4-0.2h0.5h0.2l1.7-0.1l0.6,0.1l0.6,0.3
			l1.9,1.4l0.1,0.7c0,0.1,0,0.2,0,0.3l0.4,1.5l-0.2,1.1c0,0.1,0,0.2,0,0.3v1.1l-0.1,0.1c-0.3,0.4-0.4,0.9-0.4,1.4l0,0
			c-0.1,0.2-0.2,0.5-0.3,0.8v0.3l-0.6,1.6c0,0.1-0.1,0.2-0.1,0.3l-0.2,1l-1.1,3c-0.1,0.2-0.1,0.3-0.1,0.5v0.6l-0.3,0.6
			c-0.1,0.1-0.1,0.2-0.1,0.4l-0.7,2.5l-0.7,1.9v0.1l-0.6,2c0,0.1,0,0.2-0.1,0.4v0.3c-0.1,0.1-0.1,0.2-0.2,0.3l-0.2,0.4
			c-0.1,0.2-0.2,0.4-0.2,0.7l-0.1,1c0,1,0.7,1.8,1.7,1.8c0.5,0,1-0.2,1.3-0.5l0.6-0.6c0.1-0.1,0.2-0.3,0.3-0.4l0.4-0.9
			c0.1-0.1,0.1-0.2,0.1-0.4l0.1-0.5c0.1-0.2,0.1-0.4,0-0.5v-0.1l0,0l0.2-0.4c0.1-0.2,0.2-0.4,0.2-0.6c0.1-0.2,0.2-0.4,0.2-0.5
			l0.4-1.9l0.9-2.7c0-0.1,0.1-0.2,0.1-0.3l0.1-0.7l0.8-2.1c0.1-0.1,0.1-0.3,0.1-0.5l0.1-0.7l0,0c0.1-0.1,0.2-0.3,0.2-0.4l0.3-0.9
			c0.1-0.2,0.1-0.4,0.1-0.6c0.1-0.1,0.2-0.3,0.2-0.4l0.2-0.6l0.2-0.2c0.1-0.2,0.3-0.3,0.3-0.5l0.6-1.6l0.7-1
			c0.1-0.1,0.2-0.3,0.2-0.5c0.4-0.3,0.7-0.7,0.7-1.2l0.1-0.1c0.1-0.1,0.1-0.1,0.2-0.2l0.6-0.8c0.1-0.1,0.1-0.2,0.2-0.2l0.2-0.3
			c0.2-0.1,0.5-0.3,0.6-0.5l0.6-0.7l1.2-1.3l1.4-1l2.4-1.1h0.1c0.5-0.1,1.1-0.1,1.6-0.2l1.8,0.2l1.3,0.6l0.1,0.1l0.6,0.5l0.7,1.9
			l0.1,0.7l-0.1,1.7l-0.5,2.6l-0.3,0.6c-0.1,0.1-0.1,0.3-0.2,0.4l-0.5,1.9l-0.3,0.6c0,0.1-0.1,0.2-0.1,0.3l-1.2,3.9
			c0,0.1-0.1,0.3-0.1,0.4v0.6l-0.2,0.4c-0.1,0.1-0.1,0.2-0.2,0.4l-0.4,1.5c-0.1,0.2-0.1,0.4-0.1,0.6v0.2c-0.2,0.3-0.4,0.7-0.3,1.1
			v0.5l-0.1,0.2c-0.1,0.2-0.1,0.5-0.1,0.7l0.1,1.4c0,0.2,0,0.3,0.1,0.5l0.6,1.7c0.1,0.2,0.1,0.3,0.2,0.4l0.6,0.8
			c0.1,0.2,0.3,0.3,0.4,0.4l1.5,1.1c0.3,0.2,0.6,0.3,1,0.3h2.4h0.2l1-0.1c0.2,0,0.4-0.1,0.6-0.2l2.6-1.5c0.1-0.1,0.2-0.1,0.3-0.2
			l0.7-0.6c0.1-0.1,0.2-0.2,0.2-0.3l0.2-0.2l0,0c-0.2,0.3-0.4,0.6-0.4,1l-0.1,0.9l-0.5,1.1v0.1l-1,2.7L364,262
			c-0.2,0.3-0.2,0.6-0.2,0.9v0.9l-1.9,4.7c-0.1,0.3-0.2,0.7-0.1,1v0.1c0,0.1-0.1,0.1-0.1,0.2l-1.2,3.4c-0.1,0.2-0.1,0.4-0.1,0.6v0.4
			c0,0.3,0.1,0.6,0.2,0.9l0.2,0.3c0.3,0.4,0.7,0.7,1.2,0.8c0.1,0,0.2,0,0.3,0c0.4,0,0.8-0.1,1.1-0.4l0.4-0.3c0.3-0.3,0.5-0.6,0.6-1
			l0.3-1.4l1.2-3.8l0.5-0.8c0.1-0.2,0.2-0.4,0.2-0.7c0.1-0.2,0.2-0.3,0.2-0.5l0.4-1.8l0.3-0.6c0.2-0.3,0.3-0.8,0.2-1.1l0.1-0.2
			c0-0.1,0.1-0.2,0.1-0.2l2-5.6c0-0.1,0.1-0.2,0.1-0.4l0.1-0.7l0.5-1.1c0-0.1,0.1-0.1,0.1-0.2l0.8-2.8v0.4l0.4,0.8
			c0.1,0.1,0.1,0.2,0.2,0.3l1.8,2.2c0.1,0.1,0.2,0.2,0.4,0.3l1.5,1.1c0.1,0.1,0.2,0.1,0.4,0.2l1.9,0.8c0.1,0,0.2,0.1,0.4,0.1
			l2.2,0.4h0.2l1.3,0.1c0.3,0,0.6,0,0.8-0.2l0.2-0.1c0.2,0,0.4,0,0.6,0l0.6-0.1c0.2,0,0.3,0,0.5-0.1l0.6-0.2l0,0
			c0.4,0.1,0.8,0,1.1-0.1l2.4-1.1c0.1-0.1,0.3-0.1,0.4-0.2l0.5-0.4h0.2c0.4-0.1,0.7-0.3,0.9-0.5l0.4-0.4c0.3-0.1,0.6-0.3,0.8-0.5
			l0.9-0.9l2.9-0.3h0.2l1.1-0.2c0.3-0.1,0.5-0.2,0.7-0.4l0.2-0.2l1.1-0.4l0.2-0.1l3.4-1.8c0.2-0.1,0.3-0.2,0.5-0.4l2.4-2.6
			c0.1-0.1,0.1-0.2,0.2-0.3l0.8-1.3l0.2-0.1c0.5-0.2,0.9-0.8,1-1.4v-0.2l0.6-1.1c0.1-0.2,0.2-0.4,0.2-0.6l0.1-0.4
			C408.5,242.3,408.4,242,408.2,241.6z M303.9,240.5l-0.3,1.8l-0.5,1.5c-0.1,0.2-0.1,0.5-0.1,0.7v0.1c-0.1,0.1-0.1,0.2-0.2,0.3
			l-0.4,0.9c0,0.1-0.1,0.2-0.1,0.3l-0.1,0.5l-0.1,0.1l-0.8,1.4c-0.1,0.2-0.2,0.3-0.2,0.5v0.1l-0.4,0.4l-0.1,0.1l-2.4,3l-2.6,1.6
			l-1.6,0.8l-1.6,0.5l-1.8,0.3l-1.9-0.2h-0.5l-1.9-0.8l-0.6-0.4l-1.3-1.1l-0.4-0.4l-1.2-2.9v-2.8l0.3-2.2l0.1-0.2
			c0-0.1,0.1-0.2,0.1-0.2l0.3-0.9c0.1-0.4,0.1-0.8,0-1.2l0.2-0.8l0.3-0.7c0.1-0.2,0.2-0.5,0.2-0.8v-0.2l0.2-0.2
			c0.1-0.1,0.2-0.3,0.2-0.5l0.2-0.7l1.8-2.6l2.4-2.7c0.1,0,0.2-0.1,0.3-0.1l0.4-0.2c0.2-0.1,0.3-0.3,0.4-0.4l0.3-0.1
			c0.2-0.1,0.3-0.1,0.5-0.3l0.8-0.6l0.5-0.1c0.3,0,0.5-0.1,0.7-0.3l0.8-0.5l1.9-0.2c0.2,0,0.4-0.1,0.5-0.1l1,0.2c0.1,0,0.3,0,0.4,0
			h0.6l0.3,0.1c0.1,0.1,0.3,0.1,0.5,0.1c0.2,0.1,0.3,0.2,0.5,0.2l1.1,0.3l0,0c0.2,0.3,0.5,0.5,0.8,0.6l0.4,0.1l1,1.4l0.2,0.8
			c0.1,0.4,0.3,0.7,0.6,0.9l0.1,1.1c0,0.2,0.1,0.3,0.1,0.5l0.1,0.2c-0.1,0.2-0.1,0.5-0.1,0.7l0.1,1.2L303.9,240.5z M386.7,254
			L386.7,254c-0.2,0-0.3,0.1-0.5,0.1l-0.6,0.2c-0.3,0.2-0.6,0.3-1,0.4l-0.7,0.3c-0.3-0.1-0.7-0.1-1,0l-0.6,0.2h-0.6l-2.8-0.4
			l-0.4-0.2c-0.2-0.1-0.3-0.1-0.5-0.1l-0.2-0.2c-0.1-0.1-0.2-0.1-0.2-0.2l-0.7-0.5l-1-1.1c-0.1-0.2-0.1-0.3-0.2-0.4l-0.5-0.6
			l-0.7-1.9l0,0v-0.2c0.1-0.3,0-0.7-0.1-1v-1.8c0-0.1,0-0.2,0-0.3v-0.1c0.2-0.4,0.2-0.9,0.1-1.3c0.1-0.2,0.1-0.4,0.1-0.6l0,0l0.3-1
			c0.1-0.3,0.1-0.5,0-0.8l1.2-3.6c0.4-0.2,0.6-0.6,0.8-1l0.2-0.8l0.1-0.2l-0.1,0.8c0,0.1,0,0.2,0,0.2v1c0,0.1,0,0.2,0,0.3l0.6,3.9
			c0,0.1,0.1,0.3,0.1,0.4l1.2,2.8l0.1,0.2l0.5,0.9c0,0.1,0.1,0.2,0.2,0.2l0.4,0.5l0.1,0.2c0.1,0.2,0.2,0.3,0.3,0.4l0.4,0.5l0.1,0.2
			c0.1,0.2,0.3,0.5,0.5,0.6l2,1.7c0.2,0.1,0.3,0.2,0.5,0.3l0.3,0.1c0.2,0.3,0.5,0.6,0.9,0.7l2.2,0.7L386.7,254z M395.2,241.7
			c-0.2,0.3-0.3,0.6-0.3,0.9l-0.1,1.4c-0.3,0.2-0.5,0.6-0.6,0.9l-0.1,0.3l-2,4.1l-0.5,0.5c-0.1,0.1-0.2,0.2-0.3,0.3l-0.1,0.2h-0.4
			l-2.9-0.6h-0.2c-0.2-0.2-0.5-0.4-0.8-0.5l-0.3-0.1l-1.4-0.9l-0.5-0.5l-2.2-2.9l-1.3-3.9L381,239l0.1-2.8l0.4-1.2
			c0.1-0.2,0.1-0.4,0.1-0.6c0.1-0.1,0.2-0.2,0.2-0.4l0.2-0.4c0.1-0.1,0.1-0.2,0.1-0.4l0.1-0.1l0.3-0.4c0.1-0.1,0.2-0.2,0.2-0.3
			l0.2-0.4l0.7-0.4c0.2-0.1,0.4-0.3,0.5-0.5l1.4-0.7l0.5-0.1h3c0.1,0,0.3,0,0.4,0h0.1l1.9,0.6c0.1,0,0.3,0.1,0.4,0.1l1,0.9l1.1,1.2
			l0.8,1.8l0.3,1.6l0.1,1.9L395.2,241.7L395.2,241.7z"/>
		<path class="st0" d="M14.7,267.5l0.6,0.4c0.1,0.1,0.3,0.2,0.4,0.2l3.5,1.4c0.3,0.1,0.6,0.1,0.8,0.1h0.4c0.3,0.2,0.6,0.3,0.9,0.4
			l3.2,0.5h0.2l4.8,0.3h0.1c0.1,0,0.2,0,0.3,0l3.5-0.6l2.3-0.2c0.1,0,0.3,0,0.4-0.1l2.2-0.7c0.1,0,0.2-0.1,0.3-0.1l1.5-0.8h0.1
			c0.3,0,0.6-0.1,0.8-0.2l1.3-0.7l0.4-0.1c0.4-0.1,0.8-0.4,1-0.7l0.3-0.1c0.4-0.1,0.8-0.4,1-0.8c0.2-0.1,0.4-0.2,0.5-0.3l0.6-0.5
			l0.3-0.1c0.3-0.1,0.5-0.3,0.7-0.6l0.3-0.4l1.3-1.2c0.1-0.1,0.3-0.3,0.3-0.4c0.1-0.1,0.2-0.2,0.3-0.2l1.3-1.2
			c0.1-0.1,0.1-0.1,0.2-0.2l3-3.7c0.2-0.2,0.3-0.5,0.4-0.8l0.1-0.4l0.7-0.9c0-0.1,0.1-0.1,0.1-0.2l1.1-1.9c0-0.1,0.1-0.2,0.1-0.2
			l2.3-5.9c0-0.1,0-0.2,0.1-0.3l0.7-3.3c0-0.2,0-0.4,0-0.6l0.3-0.6c0.1-0.2,0.2-0.4,0.2-0.6l0.2-1.7c0-0.1,0-0.3,0-0.4l-0.1-0.9
			l0.1-0.2c0.1-0.2,0.1-0.4,0.2-0.7l0.1-2.3v-0.1L60,230c0-0.1,0-0.2-0.1-0.3l-1.4-5.8c0-0.2-0.1-0.4-0.2-0.5l-0.8-1.2l-0.8-2
			c-0.1-0.2-0.2-0.4-0.3-0.5l-1.2-1.4l-0.3-0.7c-0.1-0.2-0.3-0.5-0.4-0.6l-1.3-1.2l-0.6-0.8c-0.1-0.2-0.2-0.3-0.4-0.4l-1.4-1
			l-0.7-0.7c-0.2-0.2-0.5-0.4-0.8-0.5c-0.1-0.2-0.3-0.3-0.5-0.4l-1.4-0.8l-0.1-0.1l-2-0.9l-0.7-0.4c-0.2-0.1-0.4-0.2-0.6-0.2
			l-0.8-0.2l-0.3-0.1c-0.3-0.2-0.6-0.2-0.8-0.2l-3.7-1h-0.2l-2.4-0.4h-0.2l-3.2-0.1l-3-0.4c-0.1,0-0.3,0-0.4,0l-7.5,0.7
			c-0.3,0-0.6,0.2-0.9,0.4L20,208c-0.4,0-0.8,0-1.1,0.2l-0.6,0.2H18c-0.4,0-0.7,0-1.1,0.2l-0.3,0.2l-1.1,0.3c-0.1,0-0.3,0.1-0.4,0.2
			l-0.6,0.4h-0.2c-0.3,0-0.5,0.1-0.8,0.2l-0.6,0.3h-0.2c-0.3,0-0.6,0.2-0.9,0.4l-0.7,0.6l-1.4,0.7c-0.1,0-0.2,0.1-0.3,0.2l-0.9,0.6
			c-0.2,0.1-0.4,0.3-0.5,0.5v0.1l-0.3,0.1c-0.2,0.1-0.5,0.3-0.6,0.5l-0.3,0.2c-0.3,0.1-0.5,0.3-0.7,0.5l-0.9,1.1l0,0
			c-0.1,0-0.1,0.1-0.1,0.1l-1.2,1.4c-0.1,0.1-0.1,0.2-0.2,0.3l-1.8,3.1c-0.1,0.3-0.2,0.6-0.2,0.9c-0.1,0.1-0.2,0.3-0.2,0.5l-0.8,2.8
			c-0.1,0.2-0.1,0.5,0,0.7l0,0L0,226.9c0,0.2-0.1,0.3-0.1,0.5v0.5c0,0.2,0,0.4,0.1,0.6v0.1c-0.1,0.3-0.1,0.6,0,0.9l0.1,0.4l-0.1,1
			c0,0.2,0,0.4,0,0.6l1,4.3c0,0.2,0.1,0.3,0.2,0.5l0.8,1.5l0.4,1.1c0.1,0.2,0.2,0.5,0.4,0.7l0.7,0.7l0.6,0.9
			c0.1,0.2,0.3,0.4,0.5,0.5l0.5,0.3c0.2,0.1,0.5,0.2,0.7,0.3l0.5,0.1h0.2c1,0,1.8-0.8,1.7-1.8c0-0.3-0.1-0.6-0.3-0.9l-2.4-3.8
			L5,234.2v-0.3c0-0.1,0-0.3,0-0.4L4.4,231l-0.2-1.9l0.2-2.8c0.1-0.2,0.2-0.4,0.2-0.6l0.3-1.6l0.8-1.9c0-0.1,0.1-0.2,0.1-0.2
			l0.2-0.6l0.4-0.4c0.1-0.1,0.2-0.3,0.3-0.4l0.8-1.3l0.6-0.6l0.1-0.1c0.1-0.1,0.3-0.2,0.4-0.4l0.2-0.3l0.8-0.7
			c0.1-0.1,0.2-0.2,0.3-0.3l0.3-0.5c0.2,0,0.3-0.1,0.4-0.2l1.7-1.2l2.9-1.2l4.3-1.4l4.3-0.7v0.1l-0.2,0.9l-0.2,0.2
			c-0.1,0.2-0.3,0.4-0.3,0.7l-0.3,1.7l-0.4,0.8c0,0.1-0.1,0.2-0.1,0.3l-0.5,2l-0.2,0.2c-0.1,0.2-0.2,0.4-0.3,0.6l-0.7,2.8l-0.8,2.1
			c0,0.1-0.1,0.3-0.1,0.5v0.4c-0.2,0.2-0.4,0.5-0.4,0.8l-0.2,1l-0.2,0.3c-0.2,0.3-0.3,0.7-0.2,1c-0.2,0.3-0.3,0.6-0.3,1v0.2
			l-0.9,2.5c-0.1,0.2-0.1,0.3-0.1,0.5v0.6c-0.2,0.2-0.3,0.4-0.3,0.6l-0.9,3.1l-0.5,0.9c-0.1,0.2-0.2,0.4-0.2,0.5l-0.2,1.5l-0.4,0.8
			c-0.1,0.2-0.2,0.5-0.2,0.8v0.5l-0.4,0.9c-0.1,0.1-0.1,0.2-0.1,0.4l-0.5,2l-0.2,0.4c-0.1,0.1-0.1,0.2-0.1,0.3l-0.4,1.3
			c0,0.2-0.1,0.3-0.1,0.5v0.2l-0.9,2.1c0,0.1,0,0.1-0.1,0.2l-0.7,2.2c0,0.1,0,0.1,0,0.2l-0.4,2.1l-0.4,0.8c0,0.1-0.1,0.1-0.1,0.2
			l-0.8,2.2c0,0.1,0,0.1,0,0.2l-1.2,4.6c-0.2,0.7,0.1,1.4,0.6,1.8l1.4,1.1c0.1,0.1,0.2,0.1,0.3,0.2l3.3,1.7
			C14.2,267.3,14.4,267.4,14.7,267.5L14.7,267.5z M12.7,262.2l0.1-0.2c0.1-0.2,0.2-0.4,0.2-0.7l0.1-0.8l0.1-0.1
			c0.2-0.3,0.3-0.6,0.3-1v-0.5l1.1-3.4c0-0.1,0.1-0.2,0.1-0.3l0.1-0.8l0.4-0.8c0.1-0.1,0.1-0.3,0.2-0.5l0.2-0.6c0-0.2,0-0.4,0-0.6
			l0,0l0.3-0.4c0.1-0.2,0.2-0.5,0.3-0.7l0.1-0.9c0.3-0.3,0.5-0.6,0.5-1l0.2-1.5l0.7-1.8c0.1-0.2,0.1-0.4,0.1-0.6v-0.2l0.3-0.5
			l0.1-0.2l1.2-3.3c0.1-0.3,0.1-0.6,0.1-0.9l0.3-0.5c0.2-0.3,0.2-0.6,0.3-0.9c0-0.1,0-0.1,0.1-0.2l2.3-7.4c0.1-0.2,0.1-0.3,0.1-0.5
			V230c0.1-0.1,0.2-0.3,0.3-0.5l0.6-1.6c0-0.1,0.1-0.3,0.1-0.4l0.1-0.9c0.1-0.1,0.2-0.3,0.3-0.5l0.3-0.9l0.2-0.2
			c0.2-0.3,0.3-0.8,0.3-1.2v-0.2l0.4-1c0.1-0.2,0.1-0.4,0.1-0.6c0.1-0.1,0.1-0.2,0.2-0.3l0.5-1.2c0.1-0.2,0.1-0.4,0.1-0.6V219
			l0.6-1.2c0-0.1,0.1-0.2,0.1-0.3l0.6-2.2l0.8-2c0.1-0.3,0.2-0.6,0.1-0.9v-0.1c0.1-0.2,0.2-0.3,0.3-0.5v-0.2l0.9-0.1l6.5,0.2
			c0.2,0.2,0.5,0.4,0.8,0.4l2.9,0.6h0.2l0.8,0.1l0.5,0.3c0.2,0.1,0.4,0.2,0.6,0.2l1.4,0.3l1.8,1c0.2,0.1,0.5,0.2,0.7,0.2
			c0.2,0.2,0.4,0.3,0.6,0.4l0.3,0.1c0.2,0.3,0.4,0.5,0.7,0.6l0.3,0.2l1.6,1.4c0.2,0.1,0.4,0.3,0.6,0.3l0.2,0.1l1.4,1.6l2.4,3.5
			l1.7,4l0.5,2.2l0.3,2.4v2.1c0,0.2,0,0.4,0.1,0.6c0,0.1,0,0.2,0,0.2l-0.3,3.8l-0.2,1.1c0,0.1,0,0.1,0,0.2l-0.1,2.1l-0.2,0.4
			c-0.2,0.3-0.3,0.7-0.2,1v0.7l-0.3,0.5c-0.1,0.1-0.1,0.2-0.2,0.4l-0.7,2.3l-1,2c-0.1,0.2-0.1,0.4-0.2,0.5c-0.1,0.1-0.2,0.3-0.3,0.4
			l-0.9,2.2l-0.5,0.5c-0.2,0.2-0.3,0.4-0.4,0.6l-0.2,0.4l-1.2,1.8l-2.8,3.5c-0.1,0-0.2,0.1-0.3,0.1l-0.5,0.3
			c-0.2,0.1-0.4,0.3-0.6,0.5l-0.6,0.8l-0.4,0.1c-0.2,0.1-0.3,0.1-0.5,0.3l-1.5,1.2h-0.2c-0.2,0-0.3,0.1-0.4,0.2l-1,0.6
			c-0.1,0.1-0.2,0.2-0.3,0.3h-0.1c-0.3,0.1-0.5,0.2-0.7,0.4l-0.6,0.5h-0.1c-0.2,0-0.4,0.1-0.6,0.2l-0.4,0.2l-5.4,1.5l-4.4,0.3
			c-0.2,0-0.3,0-0.5,0.1l-0.2,0.1l-4.8-0.7l-2.1-0.6l-0.8-0.4c-0.2-0.1-0.5-0.2-0.7-0.2h-0.7L12.7,262.2z"/>
		<path class="st0" d="M171.4,299.2c-10.3,0-10.3,0-20.2-3.9c-2-0.8-4.4-1.8-7.5-2.9l-3-1.2c-9.2-3.5-15.8-6-30.5-6h-46
			c-7.4,0-15.5,3.1-15.7,11.7v15.9c0.2,8.6,8.2,11.7,15.6,11.7c2.8,0.1,12.4,0.1,22.7,0.1c9.9,0,20,0,23.1,0.1l0,0
			c14.9,0,21.2-2.5,30.9-6.2c0.9-0.4,1.9-0.7,2.9-1.1c3.5-1.3,6.2-2.4,8.4-3.2c9.3-3.6,9.3-3.6,20.1-3.6h3.2l108.4-0.1l55.5-0.1
			c4.4,0.2,8.6,1.8,12,4.7c1.4,1.4,3.3,2.1,5.2,2c1.7-0.1,3.3-0.9,4.3-2.2c1.9-2.3,2.5-4.9,2.5-10.6s-0.7-7.4-2.5-9.7
			c-1-1.3-2.6-2.1-4.2-2.2c-2-0.1-3.9,0.6-5.3,2c-3.3,2.9-7.6,4.5-12,4.7l-55.5,0.1l-108.4,0.1L171.4,299.2z M64.2,321.4
			c-2.9,0-12.5-0.6-12.7-8.7v-15.9c0.2-8.1,9.7-8.7,12.7-8.7h7.5l5.8,5.5l-11.6,11.1l11.6,11.1l-5.9,5.6
			C68.1,321.4,65.4,321.4,64.2,321.4z M84.7,321.5h-8.8l5.9-5.6l-11.6-11.1l11.6-11.1l-5.8-5.6h8.8l5.8,5.5L79,304.7l11.6,11.1
			L84.7,321.5z M283.8,302.1l55.5-0.1c5.2-0.2,10.1-2.1,14-5.5c0.8-0.8,1.9-1.2,3-1.2c0.8,0,1.6,0.4,2.1,1c1.2,1.5,1.9,2.6,1.9,7.8
			c0,5.5-0.6,7.2-1.8,8.7c-0.6,0.6-1.3,1-2.2,1.1c-1.1,0-2.2-0.4-3-1.2c-3.9-3.4-8.8-5.3-14-5.5l-55.5,0.1l-108.4,0.1h-3.2
			c-11.2,0-11.4,0-21.1,3.8c-2.2,0.9-4.9,1.9-8.3,3.2l-2.9,1.1c-9.3,3.6-15.5,6-29.8,6c-2.9-0.1-11.9-0.1-21-0.1l5.9-5.6l-11.6-11.1
			L95,293.6l-5.8-5.5h21.1c14.2,0,20.2,2.3,29.4,5.8l3.1,1.1c3,1.2,5.4,2.1,7.4,2.9c10.3,4.1,10.5,4.2,21.3,4.1h3.9L283.8,302.1z"/>
		<path class="st0" d="M291.5,410.1c2,0.4,4.1-0.6,5-2.5c0.5-1.1,0.8-2.3,0.7-3.6v-0.1c1.1,1.7,3,2.6,5,2.3c1.3-0.2,2.4-0.9,3.1-2
			c0.9-1.3,1.2-2.8,0.9-4.4l-0.6-4.8v-0.2c0.3,0.2,0.6,0.4,1,0.5c0.8,0.2,1.6,0.1,2.4-0.2c1-0.5,1.8-1.3,2.3-2.3
			c0.4-1.1,0.6-2.3,0.3-3.4c0.6,0,1.3-0.1,1.8-0.4c1-0.5,1.7-1.3,2.2-2.2c0.5-1.1,0.7-2.4,0.5-3.7c-0.1-0.5-0.2-1-0.3-1.5
			c-0.4-1-0.4-2.1,0-3.1c0.1-0.2,0.1-0.5,0.1-0.7l5.3-3.3c0.6-0.3,0.8-1.1,0.5-1.7s-1.1-0.8-1.7-0.5c-0.1,0-0.1,0.1-0.1,0.1
			l-5.3,3.3c-0.2-0.1-0.5-0.2-0.7-0.2c-1.1-0.1-2-0.5-2.8-1.3c-0.4-0.4-0.8-0.7-1.2-1c-1-0.8-2.2-1.2-3.5-1.2
			c-1.1,0.1-2.1,0.4-3,1.1c-0.5,0.4-0.9,0.9-1.2,1.5c-0.9-0.7-2-1.1-3.2-1.2c-1.1,0-2.2,0.4-3.1,1.1c-0.6,0.5-1.1,1.2-1.2,2
			c-0.1,0.4-0.1,0.7,0,1.1l-0.2-0.1l-4-2.4c-1.3-0.9-2.8-1.3-4.4-1.1c-1.3,0.2-2.4,0.9-3.1,1.9c-1.1,1.7-1.1,3.8-0.1,5.5l-0.1-0.1
			c-1.1-0.6-2.3-0.9-3.5-0.9c-1.5,0-2.8,0.7-3.7,1.9c-0.4,0.5-0.6,1-0.8,1.6c-1.5,0.3-2.8,1.3-3.5,2.7c-1,2.2-0.3,4.8,1.7,6.3
			c-0.4,0.1-0.7,0.3-1.1,0.5c-2.4,1.3-3.5,4.1-2.8,6.8l-0.2,0.1l-0.3,0.1c-2.1,1.4-2.3,4.5-1.1,6.3c0.7,1.1,1.8,1.8,3,2
			c1.1,0.3,2.2,0.1,3.1-0.5c0.1-0.1,0.2-0.1,0.2-0.2l0.2-0.2c2,1.9,5.1,2.1,7.4,0.6c0.4-0.2,0.7-0.5,1-0.7c0.4,2.4,2.5,4.1,4.9,4.3
			l0,0C289.1,412.1,290.6,411.3,291.5,410.1z M290.4,407.4c-0.3,0.1-0.6,0.4-0.7,0.7c-0.4,0.9-1.2,1.5-2.2,1.5l0,0
			c-1.6,0-2.6-1.6-2.6-3.1v-1.4c0-0.2,0-0.4-0.1-0.6c-0.2-0.4-0.5-0.7-0.8-0.9c-0.2-0.1-0.4-0.2-0.6-0.2c-0.3,0-0.5,0-0.7,0.2
			c-0.3,0.1-0.6,0.3-0.7,0.6l-0.1,0.2c0,0.1-0.1,0.2-0.1,0.3c-0.3,0.7-0.8,1.3-1.5,1.7c-1.8,1.1-3.6,0.7-5.1-1
			c-0.2-0.3-0.5-0.4-0.9-0.4c-0.3,0-0.7,0.1-0.9,0.3l-0.1,0.1c-0.2,0.2-0.5,0.5-0.9,0.8c-0.4,0.2-0.8,0.3-1.3,0.1
			c-0.6-0.1-1.1-0.5-1.4-0.9l0,0c-0.6-0.9-0.4-2.1,0.3-2.9c0.2-0.1,0.5-0.2,0.7-0.3c0.2-0.1,0.5-0.2,0.7-0.3c0.6-0.3,0.8-1,0.5-1.6
			c-0.9-1.7-0.3-3.8,1.4-4.8l0,0c0.7-0.4,1.4-0.6,2.2-0.6c0.1,0,0.2,0,0.3,0h0.2c0.3,0,0.6-0.1,0.9-0.3c0.2-0.1,0.4-0.4,0.5-0.6
			c0-0.1,0.1-0.2,0.1-0.3c0-0.5-0.1-1-0.5-1.4c-0.1-0.2-0.3-0.3-0.5-0.4l-1.2-0.6c-1.4-0.6-2.4-2.2-1.7-3.7c0.5-0.9,1.4-1.4,2.4-1.3
			c0.4,0,0.7-0.1,1-0.4s0.4-0.6,0.3-1s0.1-0.9,0.4-1.2c0.4-0.5,1-0.8,1.7-0.8c0.8,0,1.6,0.2,2.3,0.6l2.4,1.2l0.2,0.1
			c0.5,0.2,1.1,0.2,1.6,0l0,0c0.5-0.1,0.9-0.4,1-0.9l0,0l0,0c0.1-0.4,0.2-0.8,0.1-1.2c-0.1-0.6-0.5-1.1-1-1.5l0,0
			c-1.2-0.9-1.9-2.6-1-3.9c0.4-0.5,0.9-0.8,1.5-0.9c0.9-0.1,1.9,0.1,2.6,0.7l4.1,2.6c0.5,0.2,1,0.4,1.5,0.4c0.2,0,0.5,0,0.7,0
			s0.3,0,0.5,0l0,0c0.5-0.2,0.9-0.5,1.2-0.9c0.1-0.2,0.2-0.4,0.2-0.6c0.1-0.2,0.1-0.5,0-0.8c0,0,0,0,0-0.1c-0.1-0.2-0.1-0.5-0.1-0.7
			s0.1-0.4,0.3-0.5c0.4-0.3,0.9-0.5,1.5-0.5c0.7,0.1,1.3,0.3,1.9,0.8c0.4,0.3,0.9,0.6,1.3,0.9c0.4,0.2,0.7,0.2,1.1,0.1
			s0.8-0.4,0.9-0.8c0.1-0.2,0.1-0.3,0.1-0.5v-0.2c0.1-0.5,0.1-0.7,0.5-0.9c0.5-0.4,1-0.6,1.6-0.6c0.7,0,1.4,0.3,2,0.7
			c0.3,0.3,0.7,0.5,1,0.8c0.6,0.6,1.4,1.1,2.2,1.4l-7.5,4.7l-3.1-2.2c-0.6-0.3-1.4-0.1-1.7,0.5c-0.2,0.5-0.2,1.1,0.2,1.5l2.3,1.6
			l-4.1,2.6l-6.4-5.1c-0.6-0.4-1.3-0.3-1.8,0.2s-0.3,1.3,0.2,1.8l5.9,4.6l-5.1,3.2l-8-3.3c-0.6-0.2-1.4,0.1-1.6,0.7s0.1,1.3,0.7,1.6
			l6.3,2.6l-10.2,6.4c-0.6,0.4-0.8,1.1-0.4,1.7c0.2,0.4,0.6,0.6,1.1,0.6c0.2,0,0.5-0.1,0.7-0.2l10.2-6.4l-0.4,6.8
			c0,0.7,0.5,1.3,1.2,1.3l0,0h0.1c0.7,0,1.2-0.5,1.2-1.2l0.5-8.6l5.1-3.2l1.6,7.3c0.1,0.6,0.6,1,1.2,1h0.3c0.7-0.1,1.1-0.8,1-1.5
			l-1.8-8.1l4.1-2.6l0.5,2.8c0.1,0.6,0.6,1,1.2,1h0.2c0.7-0.1,1.1-0.8,1-1.5l-0.7-3.8l7.5-4.7c0,0.9,0.1,1.8,0.3,2.6
			c0.1,0.4,0.2,0.8,0.3,1.3c0.2,0.7,0.1,1.5-0.2,2.1c-0.3,0.5-0.7,0.9-1.2,1.2c-0.3,0.1-0.7,0.1-1,0l-0.2-0.1l-0.5-0.1
			c-0.5-0.1-0.9,0.1-1.2,0.5c-0.2,0.3-0.3,0.7-0.3,1.1c0,0.5,0.1,1,0.2,1.6c0.2,0.7,0.1,1.4-0.1,2c-0.2,0.5-0.6,0.9-1.1,1.1
			c-0.2,0.1-0.4,0.1-0.6,0s-0.5-0.2-0.6-0.4c-0.1-0.1-0.1-0.1-0.2-0.2s-0.3-0.2-0.5-0.2c-0.2-0.1-0.5-0.1-0.8-0.1
			c-0.5,0.1-1,0.3-1.4,0.7l0,0c-0.1,0.1-0.2,0.2-0.2,0.4c-0.1,0.2-0.2,0.4-0.3,0.6c-0.2,0.5-0.3,1-0.3,1.5l0.6,4.9
			c0.2,0.9,0,1.8-0.5,2.6c-0.3,0.5-0.9,0.8-1.5,1c-1.5,0.3-2.8-1.1-3.1-2.6c0,0,0,0,0-0.1c-0.1-0.6-0.4-1.2-0.9-1.5l-0.1-0.1
			c-0.7-0.5-1.6-0.4-2.2,0.1l-0.1,0.1c-0.4,0.4-0.6,0.9-0.7,1.5c0,0.1,0,0.1,0,0.2v2.7c0,0.8-0.1,1.6-0.5,2.4
			c-0.3,0.6-0.8,1.1-1.5,1.2c-0.5,0.1-1,0-1.4-0.2C291.1,407.3,290.7,407.3,290.4,407.4L290.4,407.4z"/>
		<path class="st0" d="M135,336.8c-0.7-0.3-1.5,0-1.8,0.7l-2.9,6.4c-0.3,0.7,0.1,1.5,0.8,1.8c0.6,0.2,1.4,0,1.7-0.6l2.9-6.4
			C136,338,135.7,337.1,135,336.8z"/>
		<path class="st0" d="M146.6,362.8c-6.3-15.1-23.6-22.4-38.8-16.2l0,0c-15.2,6.2-22.4,23.6-16.2,38.8c6.2,15.2,23.6,22.4,38.8,16.2
			C145.6,395.3,152.8,377.9,146.6,362.8z M129.4,399c-13.7,5.8-29.5-0.7-35.3-14.4s0.7-29.5,14.4-35.3c0.1,0,0.2-0.1,0.3-0.1l0,0
			c13.7-5.8,29.5,0.7,35.3,14.4s-0.7,29.5-14.4,35.3C129.6,398.9,129.5,399,129.4,399z"/>
		<path class="st0" d="M99.2,377.1c-1.8-7.6,1.6-15.5,8.3-19.5c0.6-0.4,0.9-1.2,0.5-1.9c-0.4-0.6-1.2-0.9-1.9-0.5l0,0
			c-7.7,4.6-11.6,13.7-9.6,22.4c0.1,0.6,0.7,1.1,1.3,1.1c0.1,0,0.2,0,0.3,0C99,378.6,99.4,377.9,99.2,377.1
			C99.3,377.1,99.3,377.1,99.2,377.1z"/>
		<path class="st0" d="M139.9,369.1c-0.7,0.2-1.2,0.9-1,1.6c1.8,7.6-1.4,15.5-8,19.6l0,0c-0.7,0.4-0.9,1.2-0.6,1.9
			c0.3,0.6,0.9,0.8,1.6,0.7h0.1c0.1,0,0.1-0.1,0.2-0.1c7.7-4.7,11.5-13.9,9.3-22.6C141.4,369.3,140.6,368.9,139.9,369.1L139.9,369.1
			z"/>
		<path class="st0" d="M136.5,364.5l-2.4,1c-0.7,0.2-1.1,1-0.9,1.7s1,1.1,1.7,0.9c0.1,0,0.1-0.1,0.2-0.1l3-1.2
			c0.8-0.3,1.3-1,1.3-1.9c0-0.3,0-0.6-0.1-0.8V364c-2.1-5.1-6.2-9.2-11.3-11.3c-5-2.1-10.7-2.2-15.8-0.1c-0.3,0.1-0.5,0.3-0.7,0.5
			l-0.1,0.1l-0.1,0.1c-0.2,0.2-0.3,0.5-0.4,0.8c0,0.1,0,0.2,0,0.3c0,0.2,0,0.4,0.1,0.5c0,0.1,0.1,0.1,0.1,0.2s0,0.1,0.1,0.2l1.2,3
			c0.3,0.7,1.2,1,1.8,0.6c0.6-0.3,0.9-1,0.7-1.6l-1-2.4c4.2-1.5,8.9-1.4,13,0.3C131.2,357,134.6,360.3,136.5,364.5z"/>
		<path class="st0" d="M126,389.8c-0.2-0.7-1-1.1-1.7-0.9s-1.1,1-0.9,1.7c0,0.1,0.1,0.1,0.1,0.2l1,2.4c-8.8,3.2-18.7-0.9-22.6-9.4
			l2.4-1c0.7-0.2,1.1-1,0.9-1.7s-1-1.1-1.7-0.9c-0.1,0-0.1,0.1-0.2,0.1l-3,1.2l-0.2,0.1l-0.2,0.1c-0.2,0.1-0.3,0.2-0.4,0.4l-0.1,0.2
			c-0.2,0.2-0.3,0.5-0.3,0.8c0,0.1,0,0.1,0,0.2c0,0.2,0,0.4,0,0.5s0.1,0.2,0.1,0.3c0,0.1,0,0.1,0.1,0.2
			c4.4,10.5,16.5,15.5,27.1,11.3c0.3-0.1,0.5-0.3,0.7-0.5c0.6-0.6,0.8-1.5,0.5-2.3L126,389.8z"/>
		<path class="st0" d="M136.4,343.4c0.2,0,0.4,0,0.5-0.1c3.3-1.3,4.8-5,3.5-8.3c-0.6-1.6-1.9-2.8-3.5-3.5s-3.3-0.7-4.9,0
			c-3.3,1.3-4.8,5.1-3.5,8.3c0.4,0.7,1.2,0.9,1.9,0.6c0.6-0.3,0.8-0.9,0.7-1.6c-0.8-1.9,0.1-4,2-4.8s4,0.1,4.8,2
			c0.4,0.9,0.4,1.9,0,2.8s-1.1,1.6-2,2c-0.7,0.3-1,1.1-0.7,1.8C135.3,343.2,135.8,343.5,136.4,343.4L136.4,343.4z"/>
		<path class="st0" d="M112.8,390.2c0.1,0,0.2,0,0.3,0c0.7,0,1.3-0.3,1.7-0.8l9.6-12.7c0.2-0.3,0.4-0.6,0.4-1l2.4-15.5
			c0.2-1.2-0.6-2.2-1.8-2.4c-0.8-0.1-1.5,0.2-2,0.8l-9.5,12.6c-0.2,0.3-0.3,0.6-0.4,1l-2.4,15.6C110.9,388.9,111.7,390,112.8,390.2
			L112.8,390.2z M116.1,372.8l7.9-10.5l-2,12.9l-8,10.6L116.1,372.8z"/>
		<path class="st0" d="M118.6,372.6c-0.8,0.3-1.2,1.2-0.9,2.1s1.2,1.2,2.1,0.9c0.8-0.3,1.2-1.3,0.9-2.1
			C120.3,372.6,119.4,372.2,118.6,372.6L118.6,372.6z"/>
		<path class="st0" d="M284.3,332.4c-7.4,0-13.5,6-13.5,13.5c0,7.4,6,13.5,13.5,13.5c7.4,0,13.5-6,13.5-13.5l0,0
			C297.8,338.5,291.7,332.4,284.3,332.4z M291.7,353.3c-4.1,4.1-10.7,4.1-14.8,0s-4.1-10.7,0-14.8c4.1-4.1,10.7-4.1,14.8,0
			c2,2,3.1,4.6,3.1,7.4C294.8,348.7,293.7,351.3,291.7,353.3L291.7,353.3z"/>
		<path class="st0" d="M284.3,338.8c-3.9,0-7.1,3.2-7.1,7.1c0,0.8,0.7,1.5,1.5,1.5s1.5-0.7,1.5-1.5c0-2.3,1.8-4.1,4.1-4.1
			c0.8,0,1.5-0.7,1.5-1.5S285.1,338.8,284.3,338.8z"/>
		<path class="st0" d="M354.2,345.9c0-12.2-9.9-22.1-22.2-22.2c-2.3,0-4.5,0.3-6.6,1c-3.1-0.8-6.3-1.3-9.5-1.6
			c-1.3-4.2-5.7-6.6-10-5.4c-2.6,0.8-4.6,2.8-5.4,5.4c-3.2,0.3-6.5,0.9-9.6,1.6c-11.7-3.6-24.1,2.9-27.7,14.6s2.9,24.1,14.6,27.7
			s24.1-2.9,27.7-14.6c0.5-1.7,0.8-3.4,0.9-5.2h3.5c0.7,12.2,11.2,21.5,23.4,20.8C345.1,367.4,354.2,357.6,354.2,345.9L354.2,345.9z
			 M332,365.1c-10.6,0-19.2-8.6-19.2-19.2l0,0v-1.5H305l-1.5,0.1v1.5c0,10.6-8.6,19.2-19.2,19.2s-19.2-8.6-19.2-19.2
			s8.6-19.2,19.2-19.2c2.1,0,4.1,0.3,6.1,1l0.4,0.1l0.4-0.1c3.5-0.9,7.1-1.4,10.7-1.7l1.2-0.1l0.2-1.2c0.4-2.7,3-4.6,5.7-4.2
			c2.2,0.3,3.9,2,4.2,4.2l0.2,1.2l1.2,0.1c3.6,0.3,7.1,0.9,10.6,1.8l0.4,0.1l0.4-0.1c10-3.4,20.9,2,24.3,12.1
			c3.4,10-2,20.9-12.1,24.3C336.2,364.7,334.1,365.1,332,365.1L332,365.1z"/>
		<path class="st0" d="M332,332.4c-7.4,0-13.5,6-13.5,13.5c0,7.4,6,13.5,13.5,13.5c7.4,0,13.5-6,13.5-13.5l0,0
			C345.5,338.5,339.5,332.5,332,332.4z M339.4,353.3c-4.1,4.1-10.7,4.1-14.8,0s-4.1-10.7,0-14.8c4.1-4.1,10.7-4.1,14.8,0
			c2,2,3.1,4.6,3.1,7.4C342.5,348.7,341.4,351.3,339.4,353.3z"/>
		<path class="st0" d="M332,338.8c-3.9,0-7.1,3.2-7.1,7.1c0,0.8,0.7,1.5,1.5,1.5s1.5-0.7,1.5-1.5c0-2.3,1.8-4.1,4.1-4.1
			c0.8,0,1.5-0.7,1.5-1.5S332.9,338.8,332,338.8z"/>
		<path class="st0" d="M308.3,328.5c1.3,0,2.4-1.1,2.4-2.4s-1.1-2.4-2.4-2.4s-2.4,1.1-2.4,2.4l0,0
			C305.9,327.4,306.9,328.4,308.3,328.5L308.3,328.5z"/>
		<path class="st0" d="M317.5,332.9c-3.1-0.5-6.2-0.8-9.3-0.8c-3.1,0-6.2,0.3-9.2,0.8c-0.8,0.1-1.4,0.8-1.4,1.6s0.8,1.4,1.6,1.4h0.2
			c2.9-0.5,5.8-0.7,8.7-0.8c3,0,5.9,0.3,8.8,0.8c0.8,0.1,1.6-0.4,1.7-1.3S318.3,333.1,317.5,332.9L317.5,332.9z"/>
		<path class="st0" d="M226.1,402.9c-0.5-0.7-1.4-0.8-2.1-0.4c-0.2,0.1-0.4,0.3-0.5,0.5l-0.8,1.5c-1-4.2-2.7-8.2-5.1-11.8
			c-1.6-2.4-3.4-4.6-5.3-6.8c-2.8-3.3-4.7-5.4-5.6-9.9c-0.1-0.8-0.9-1.4-1.7-1.2c-0.4,0.1-0.8,0.3-1,0.7c-0.1,0.2-3.1,5.3-1.8,9.9
			c0.9,3.3,0.7,4.4,0.6,4.6h-0.1c-0.1,0-0.2,0-0.3-0.1c-0.2-0.6-0.2-1.2-0.2-1.8c0-2,0-5-3.2-6.9c-0.5-0.3-1.1-0.3-1.6,0
			s-0.7,0.8-0.7,1.4c0.2,2.3-0.4,4.6-1.6,6.6c-0.6,0.9-1.3,1.8-2.1,2.8c-2.9,3.3-5.2,7.1-6.9,11.3c-0.8,2.3-1.2,4.7-1,7.1l-0.9-1.2
			c-0.5-0.7-1.4-0.8-2.1-0.3c-0.3,0.3-0.6,0.6-0.6,1.1c-0.1,0.5-1,11,6.6,18.8c4.4,4.6,10.5,7.1,16.9,6.9c1.6,0,3.1-0.1,4.7-0.3
			c9.5-1.2,16.8-9.7,17.7-20.8C228.1,406.1,226.3,403.2,226.1,402.9z M224.4,414.5c-0.8,9.6-7,17-15.1,18c-8.3,1-14-0.7-19-5.8
			c-3.1-3.2-5.1-7.3-5.6-11.7l2.1,2.7c0.5,0.7,1.4,0.8,2.1,0.3c0.6-0.4,0.8-1.2,0.5-1.8c0-0.1-2.5-6.1-0.4-11.8
			c1.5-3.8,3.7-7.3,6.4-10.4c0.8-1,1.6-2,2.2-2.9c0.7-1,1.2-2.1,1.5-3.3v0.5c0,1.7,0.1,4.5,3.1,4.8c1,0.2,2-0.2,2.7-1
			c1.1-1.3,1.1-3.6,0.1-7.5c-0.3-1.3-0.3-2.6,0.1-3.8c1.3,2.6,3,5,5,7.1c1.8,2.1,3.6,4.2,5.1,6.5c3.1,4.4,4.9,9.6,5.3,14.9
			c0,0.8,0.7,1.5,1.5,1.5c0.6,0,1.1-0.3,1.3-0.8l1.2-2.2C224.7,410.1,224.6,412.3,224.4,414.5L224.4,414.5z"/>
		<path class="st0" d="M213,409.2c-0.6-0.1-1.1,0.1-1.5,0.6l-1.4,1.9c-0.9-3.4-2.8-6.4-5.4-8.7c-0.6-0.5-1.6-0.5-2.1,0.2
			c-0.3,0.3-0.4,0.7-0.3,1.2c0.6,4.1-0.9,9.2-2,12.4c-0.7-1.1-1.6-2.1-2.6-3c-0.6-0.5-1.6-0.5-2.1,0.2c-0.2,0.2-0.3,0.5-0.3,0.8
			c-0.7,5.4,0.1,9.5,2.4,12.2c1.9,2.1,4.6,3.3,7.5,3.2h0.3c3.1,0,6-1.5,7.8-4c2.8-3.7,3.1-9.4,0.9-15.9
			C214,409.6,213.6,409.3,213,409.2z M210.9,424.3c-1.3,1.8-3.4,2.8-5.6,2.7c-2,0.1-3.9-0.7-5.3-2.2c-1.3-1.8-2-3.9-1.9-6.1
			c0.4,0.6,0.7,1.3,0.9,2.1c0.2,0.8,1,1.3,1.8,1.1c0.4-0.1,0.8-0.4,1-0.8c1.9-4.1,3.1-8.4,3.6-12.8c1.5,2.2,2.3,4.7,2.3,7.4
			c0,0.6,0.4,1.2,1,1.5c0.6,0.2,1.3,0,1.7-0.5l1.8-2.5C213.1,418.3,212.7,421.9,210.9,424.3z"/>
		<path class="st0" d="M392.9,267.4c-0.8,0.1-1.4,0.8-1.3,1.7c0.3,4.2,0.4,8.5,0.4,12.8c0,89.3-62.9,164.2-146.6,182.7l-17.8-10.2
			v-5.1h15.1c9.5,0,17.2-6.7,17.2-14.9v-0.1l-7.2-83.3c0-8.2-7.8-14.9-17.2-14.9h-12.8h-0.2v-3.4c0-0.8-0.7-1.5-1.5-1.5h-12
			c3.4-2.3,4.3-6.8,2.1-10.2c-2.3-3.4-6.8-4.3-10.2-2.1c-3.2,2.2-4.2,6.5-2.3,9.8c0.6,1,1.4,1.8,2.3,2.5h-11.8
			c-0.8,0-1.5,0.7-1.5,1.5v3.4h-12.9c-9.5,0-17.2,6.7-17.2,14.9l-7.2,83.3v0.1c0,8.2,7.7,14.9,17.2,14.9h16.1h0.1v5.1l-18.8,10.2
			c-0.1,0.1-0.2,0.1-0.3,0.2c-83.7-18.2-144.4-91-147.2-176.7c-0.1-1.9-0.1-3.7-0.1-5.6c0-0.8-0.7-1.5-1.5-1.5l0,0
			c-0.8,0-1.5,0.7-1.5,1.5c0,1.9,0,3.8,0.1,5.7c2.9,87.1,64.6,161,149.7,179.6v12.9c0,0.1,0,0.2,0,0.2h-3.4c-0.9,0-1.6,0.7-1.6,1.6
			v6.8c0,0.9,0.7,1.6,1.6,1.6H249c0.9,0,1.6-0.7,1.6-1.6l0,0v-6.8c0-0.9-0.7-1.6-1.6-1.6l0,0h-3c0-0.1,0-0.2,0-0.2v-13.2
			c85-18.9,148.8-95,148.8-185.6c0-4.4-0.1-8.8-0.4-13.1C394.4,268,393.7,267.4,392.9,267.4L392.9,267.4z M222.5,339.1h0.2h12.8
			c7.9,0,14.2,5.4,14.2,11.9v0.1l7.2,83.3c0,6.5-6.4,11.9-14.2,11.9h-15.1v-4.6c0-0.8-0.7-1.5-1.5-1.5h-0.8
			c10.8-8.2,17.4-22.4,17.4-38.1c0-10.8-3.6-21.4-10.2-29.9h1.6c0.8,0,1.5-0.7,1.5-1.5c0-0.2-0.1-0.5-0.2-0.7l-3.8-7.2v-19.1
			c0-0.8-0.7-1.5-1.5-1.5h-7.7L222.5,339.1z M220.3,440.1c-0.1,0.1-0.2,0.1-0.3,0.2h-29.2c-0.1-0.1-0.2-0.1-0.2-0.2
			c-11.8-7-19.5-21.9-19.5-37.9c0-10.8,3.8-21.3,10.8-29.6c0.1-0.1,0.2-0.2,0.2-0.4h46.6c7.2,8.3,11.1,19,11.1,29.9
			C239.7,418.2,232.1,433.1,220.3,440.1z M224.6,443.3v10.1h-37.9v-10.1H224.6z M200.7,323.9c0.5-1.9,2.2-3.2,4.2-3.2
			c2.4,0,4.4,2,4.4,4.4c0,0.4,0,0.8-0.1,1.1c-0.3,1.1-1,2.1-2,2.7c-2.1,1.2-4.8,0.6-6-1.5C200.5,326.3,200.4,325,200.7,323.9z
			 M190.6,334.2h28.9v7.9h-28.9V334.2z M228.7,345.2v18c0,0.2,0.1,0.5,0.2,0.7l2.8,5.4h-53.5l2.8-5.4c0.1-0.2,0.2-0.4,0.2-0.7v-18
			H228.7z M183.5,446.3h-16.1c-7.8,0-14.2-5.3-14.2-11.9l7.2-83.3V351c0-6.6,6.4-11.9,14.2-11.9h12.8h0.1v3.1h-7.9
			c-0.8,0-1.5,0.7-1.5,1.5v19.1l-3.8,7.2c-0.4,0.7-0.1,1.7,0.7,2c0.2,0.1,0.4,0.2,0.7,0.2h2.6c-6.6,8.6-10.2,19.1-10.2,29.9
			c0,15.7,6.6,29.9,17.4,38.1h-0.4c-0.8,0-1.5,0.7-1.5,1.5v4.6L183.5,446.3z M185.5,456.8h40.2l15.2,8.8c-10.1,2-20.3,3.2-30.5,3.5
			c-0.9,0-1.7,0-2.6,0.1s-1.9,0-2.9,0c-12.1,0.1-24.1-1.1-36-3.3L185.5,456.8z M167.1,468.5c12.3,2.4,24.7,3.7,37.2,3.6h0.6
			c1.9,0,3.8,0,5.7-0.1h0.1h0.5h0.1c10.7-0.4,21.3-1.6,31.8-3.8v11.1l0,0v1.5H167L167.1,468.5L167.1,468.5z M248.4,483.1v5.6h-86.8
			v-5.6H248.4z"/>
		<path class="st0" d="M56.9,340.9c-0.1,0.2-0.2,0.5-0.3,0.8c-1.9-0.2-3.8,0.7-4.8,2.4l0,0c-0.1,0.1-0.1,0.2-0.1,0.3
			c-0.2,0.7,0.2,1.3,0.9,1.5l0,0c0.1,0,0.2,0,0.3,0c0.5,0,0.9-0.3,1.1-0.7c0.5-0.8,1.4-1.2,2.3-1.2c0,0.2,0,0.4,0.1,0.7
			c0.4,2.5,2.3,4.5,4.7,5.2c0.3,1.3,0.9,2.6,1.6,3.7l-0.4,0.9c-0.1,0.1-0.2,0.2-0.3,0.2s-0.3,0-0.4,0l-4.2-2c-0.9-0.4-2-0.1-2.4,0.8
			l0,0l-0.4,0.8c-0.3,0.6,0,1.4,0.6,1.7c0.6,0.3,1.4,0,1.7-0.6l0.1-0.2l3.6,1.7c0.4,0.2,0.8,0.3,1.3,0.3c0.3,0,0.7-0.1,1-0.2
			c0.7-0.3,1.3-0.8,1.7-1.5l0.5,0.4l-0.3,2.7c-0.1,0.9,0.1,1.8,0.6,2.5l1,1.4l-0.3,0.2c-0.5,0.4-0.6,1.2-0.2,1.7l0,0
			c0.2,0.3,0.6,0.5,1,0.5c0.3,0,0.6-0.1,0.8-0.3l1.2-1c0.5-0.4,0.6-1.2,0.2-1.7l-1.7-2.4c-0.2-0.2-0.2-0.5-0.2-0.8l0.2-1.5l0,0
			c1.2,0.6,2.4,0.9,3.7,1.1v0.1c-0.7,1.5-0.1,3.3,1.4,4l3.6,1.7l-0.1,0.2c-0.3,0.6-0.1,1.4,0.6,1.7l0,0c0.2,0.1,0.4,0.1,0.5,0.1
			c0.5,0,0.9-0.3,1.1-0.7l0.4-0.8c0.2-0.4,0.3-0.9,0.1-1.4c-0.2-0.5-0.5-0.8-0.9-1l-4.2-2c-0.1-0.1-0.2-0.2-0.2-0.3
			c0-0.1,0-0.3,0-0.4l0.6-1.2c0.7-0.1,1.3-0.2,1.9-0.4c5.4-1.6,8.4-7.3,6.8-12.7c-0.1-0.3-0.2-0.6-0.3-0.8c-0.2-0.6-0.5-1.2-0.9-1.8
			l0.5-1c0.1-0.1,0.2-0.2,0.3-0.2c0.1-0.1,0.3-0.1,0.4,0l4.2,2c0.9,0.4,2,0.1,2.4-0.8l0,0l0.4-0.8c0.3-0.6,0-1.4-0.6-1.7
			c-0.6-0.3-1.4,0-1.7,0.6l0,0l-0.1,0.2l-3.6-1.7c-1.5-0.7-3.3-0.1-4,1.3c-0.9-0.9-2-1.7-3.2-2.3h-0.1l1.2-1.2
			c0.2-0.2,0.4-0.3,0.7-0.3l2.9-0.1c0.7,0,1.2-0.6,1.2-1.2v-1.5c0-0.7-0.5-1.2-1.2-1.2l0,0l0,0c-0.7,0-1.2,0.6-1.2,1.2v0.4l-1.8,0.1
			c-0.9,0-1.8,0.4-2.4,1.1l-2,2.1l-0.5-0.1v-0.1c0.7-1.5,0.1-3.3-1.4-4l-3.6-1.7l0.1-0.2c0.3-0.6,0-1.4-0.6-1.7
			c-0.6-0.3-1.4,0-1.7,0.6l-0.4,0.8c-0.4,0.9-0.1,2,0.8,2.4l0,0l4.2,2c0.1,0.1,0.2,0.2,0.2,0.3c0,0.1,0,0.3,0,0.4l-0.5,1.1
			c-0.8,0.1-1.7,0.2-2.5,0.5c-0.5,0.2-1,0.4-1.4,0.6c-2-1.5-4.7-1.6-6.9-0.4c-0.2,0.1-0.4,0.2-0.6,0.4c-0.6-0.7-0.8-1.6-0.6-2.5
			v-0.1c0.2-0.6-0.1-1.4-0.8-1.6c-0.6-0.2-1.2,0-1.5,0.6c0,0.1-0.1,0.1-0.1,0.2c-0.7,1.8-0.3,3.9,1.1,5.3
			C57.2,340.5,57.1,340.7,56.9,340.9L56.9,340.9z M68.3,355.4l-0.4-0.2l0.2-0.4c0.5-0.7,1.2-1.2,2.1-1.4c0.8-0.2,1.6-0.1,2.3,0.4
			l2.3,2.2C72.7,356.6,70.3,356.4,68.3,355.4z M74.8,340.9l0.1-0.2l0.4,0.2c2,0.9,3.5,2.5,4.4,4.5l-3-0.5c-0.8-0.2-1.4-0.8-1.7-1.6
			C74.6,342.6,74.5,341.7,74.8,340.9z M69.3,346.9c1-2.1,1.2-4.6,0.6-6.8c0.8-0.1,1.7-0.1,2.5,0c-0.5,1.4-0.4,3,0.3,4.4
			c0.6,1.5,2,2.7,3.6,3l4,0.6c0.1,1.3-0.1,2.7-0.7,3.9c-0.6,1.2-1.4,2.1-2.4,2.9l-3.1-2.9c-1.3-1.1-3-1.5-4.6-1
			c-1.6,0.3-2.9,1.3-3.7,2.7c-0.6-0.6-1.1-1.3-1.5-2C66.5,350.8,68.3,349.1,69.3,346.9L69.3,346.9z M67.6,340.8
			c0.4,1.7,0.2,3.4-0.5,5c-0.8,1.6-2,2.8-3.6,3.5C62.6,345.9,64.4,342.3,67.6,340.8L67.6,340.8z M59.1,342.1L59.1,342.1
			c0.9-1.9,3.1-2.8,5-2c-2.1,1.8-3.3,4.4-3.4,7.1C58.9,346.2,58.2,344,59.1,342.1L59.1,342.1z"/>
		<path class="st0" d="M333.7,145.4c-1,1.7-13.9,16.3-17.2,19.1c-2.6,2.2-4.6,1.7-4.8,1.7c-0.8-0.2-1.6,0.2-1.9,1
			c-0.2,0.8,0.2,1.6,1,1.9c0.5,0.1,1,0.2,1.5,0.2c2.2-0.1,4.4-0.9,6-2.4c1-0.9,3-2.8,5.2-5.2c0.1,2.4,0.1,5.8-0.5,7.4
			c-0.3,0.8,0.1,1.6,0.8,1.9c0.2,0.1,0.4,0.1,0.6,0.1c0.6,0,1.2-0.4,1.4-0.9c1.2-3,0.7-9.7,0.7-10.4c0-0.3-0.1-0.6-0.3-0.8
			c2.9-3.2,5.9-6.6,8-9.1v15.3c-4.5,6.7-9.3,11.2-14.5,13.4c-1.9,0.9-4.1,0.9-6,0.1c-0.7-0.4-1.6-0.1-2,0.7
			c-0.4,0.7-0.1,1.5,0.5,1.9c1.3,0.7,2.8,1,4.3,1s3-0.3,4.4-0.9c4.8-2,9.3-5.7,13.4-11v9.2c-0.2,0.1-0.4,0.3-0.6,0.5
			c-1,1.7-15.1,16.3-18.8,19.1c-2.9,2.2-5.3,1.7-5.4,1.7c-0.8-0.2-1.6,0.3-1.8,1.1s0.3,1.6,1.1,1.8c0.5,0.1,1,0.2,1.5,0.2
			c2.4,0,4.6-0.9,6.5-2.4c1.2-0.9,3.4-3,5.9-5.4c0.1,2.6,0.1,6.1-0.6,7.6c-0.3,0.8,0,1.6,0.7,2l0,0c0.2,0.1,0.4,0.1,0.6,0.1
			c0.6,0,1.1-0.4,1.4-0.9c1.3-3.1,0.8-9.8,0.7-10.5c0-0.3-0.1-0.6-0.3-0.8c3.4-3.4,6.9-7.1,9.1-9.6v16.7
			c-5.1,6.6-10.8,11.1-16.9,13.3c-2.4,1-5,1-7.4,0.1c-0.7-0.4-1.6-0.1-2,0.7c-0.4,0.7-0.1,1.6,0.7,2c1.5,0.7,3.2,1,4.8,0.9
			c1.7,0,3.3-0.3,4.9-0.9c5.6-2,11-5.9,15.8-11.4v10.9c0,0.8,0.7,1.5,1.5,1.5s1.5-0.7,1.5-1.5v-11.5c5,5.8,10.5,9.8,16.3,11.9
			c1.6,0.6,3.2,0.9,4.9,0.9c1.6,0,3.3-0.3,4.8-0.9c0.7-0.4,1-1.3,0.7-2c-0.4-0.7-1.3-1-2-0.7c-2.4,0.9-5,0.9-7.4-0.1
			c-6.2-2.2-11.9-6.8-17.2-13.7l-0.1-0.1V184c2.2,2.4,5.6,6.1,9,9.5c-0.2,0.2-0.3,0.5-0.3,0.8c-0.1,0.8-0.6,7.4,0.7,10.5
			c0.2,0.5,0.8,0.9,1.4,0.9c0.2,0,0.4,0,0.6-0.1c0.8-0.3,1.1-1.2,0.8-2l0,0c-0.6-1.5-0.7-5-0.6-7.6c2.5,2.5,4.7,4.5,5.9,5.4
			c1.8,1.5,4.1,2.3,6.5,2.4c0.5,0,1,0,1.5-0.2c0.8-0.2,1.3-1,1.1-1.8c-0.2-0.8-1-1.3-1.8-1.1h-0.1c0,0-2.4,0.6-5.4-1.7
			c-3.7-2.8-17.8-17.5-18.8-19.1c-0.1-0.2-0.3-0.4-0.5-0.5v-9.5c4.2,5.5,8.7,9.2,13.6,11.3c1.4,0.6,2.9,0.9,4.4,0.9s3-0.3,4.3-1
			c0.7-0.4,1-1.3,0.5-2.1c-0.4-0.7-1.3-1-2.1-0.5l0,0c-1.9,0.8-4.1,0.8-6-0.1c-5.3-2.2-10.2-6.8-14.7-13.7l0,0v-15.3
			c2,2.4,5.2,6,8.2,9.4c-0.2,0.2-0.3,0.5-0.3,0.8c-0.1,0.8-0.5,7.4,0.7,10.4c0.2,0.6,0.8,0.9,1.4,0.9c0.2,0,0.4,0,0.6-0.1
			c0.8-0.3,1.1-1.2,0.8-1.9c-0.6-1.6-0.6-5-0.5-7.4c2.2,2.4,4.1,4.3,5.2,5.2c1.7,1.5,3.8,2.4,6,2.4c0.5,0,1-0.1,1.5-0.2
			c0.8-0.3,1.2-1.1,0.9-1.9c-0.2-0.7-1-1.2-1.8-1c-0.1,0-2.2,0.5-4.8-1.7c-3.5-2.8-16.3-17.4-17.3-19.1c-0.1-0.3-0.4-0.5-0.6-0.6
			v-12.8c0.8,2.4,1.6,4.8,2.4,6.6c3.3,7.4,10.8,10.9,11.1,11.1c0.2,0.1,0.4,0.1,0.6,0.1c0.6,0,1.1-0.3,1.4-0.9c0.4-0.7,0-1.6-0.7-2
			l0,0c-0.1,0-6.8-3.2-9.6-9.6c-2-4.7-4.8-14.5-4.9-14.6c-0.1-0.3-0.3-0.6-0.6-0.8c-0.2-0.1-0.4-0.3-0.6-0.3c-0.8-0.2-1.6,0.2-1.9,1
			l0,0c0,0.1-2.9,9.8-4.9,14.5c-2.8,6.4-9.5,9.5-9.6,9.6c-0.8,0.4-1.1,1.3-0.7,2c0.2,0.5,0.8,0.8,1.3,0.9c0.2,0,0.4,0,0.6-0.1
			c0.3-0.1,7.8-3.7,11.1-11.1c0.6-1.4,1.2-3.1,1.9-4.9v11.6C333.9,145.1,333.8,145.2,333.7,145.4z"/>
		<path class="st0" d="M49.7,191.9c0.5,0.1,1,0.2,1.5,0.2c2.3,0,4.4-0.8,6.2-2.3c1-0.8,3-2.6,5.2-4.8c0.1,2.3,0,5.2-0.6,6.5
			c-0.4,0.8,0,1.8,0.8,2.1l0,0c0.2,0.1,0.4,0.1,0.7,0.1c0.7,0,1.2-0.4,1.5-1c1.3-2.9,0.8-9.2,0.7-9.9c0-0.3-0.1-0.5-0.2-0.7
			c2.9-3,6-6.1,8-8.4v16.8c-4.8,6.1-10,10.3-15.6,12.3c-2.1,0.9-4.5,0.9-6.7,0.1c-0.8-0.4-1.8-0.1-2.2,0.7s-0.1,1.8,0.7,2.2
			c1.4,0.6,3,0.9,4.6,0.9s3.2-0.3,4.7-0.8c5.6-2.2,10.6-5.7,14.5-10.3v19.2c0.1,0.9,0.9,1.6,1.8,1.5c0.8-0.1,1.4-0.7,1.5-1.5v-19.6
			c4.6,5.2,9.6,8.9,14.9,10.8c1.5,0.5,3.1,0.8,4.7,0.8s3.1-0.3,4.6-0.9c0.8-0.4,1.1-1.4,0.7-2.2s-1.4-1.1-2.2-0.7
			c-2.2,0.8-4.6,0.8-6.7-0.1c-5.7-2.1-11.1-6.3-15.9-12.7l-0.1-0.1v-16.2c2,2.2,5,5.4,7.9,8.3c-0.1,0.2-0.2,0.5-0.2,0.7
			c-0.1,0.7-0.6,7,0.7,9.9c0.2,0.6,0.8,1,1.5,1c0.2,0,0.4,0,0.6-0.1c0.8-0.3,1.2-1.3,0.8-2.1l0,0c-0.6-1.2-0.6-4.1-0.6-6.5
			c2.2,2.2,4.1,3.9,5.2,4.8c2.1,1.6,3.2,2.3,4.1,2.3c0.3,0,0.7-0.1,0.9-0.3c0.6-0.4,0.9-1.1,0.7-1.8c-0.2-0.7-0.8-1.2-1.5-1.2
			c-0.8-0.5-1.6-1-2.3-1.6c-3.4-2.6-16.5-16.3-17.5-17.8c-0.1-0.2-0.3-0.3-0.4-0.4v-10c3.8,4.9,8,8.3,12.4,10.1
			c1.3,0.6,2.7,0.9,4.2,0.9c1.4,0,2.9-0.3,4.1-1c0.8-0.5,1-1.4,0.6-2.2s-1.4-1-2.2-0.6c-1.7,0.7-3.7,0.7-5.4-0.1
			c-4.9-2-9.4-6.3-13.6-12.6v-15.5c1.8,2.2,4.6,5.3,7.2,8.2c-0.1,0.2-0.2,0.5-0.2,0.7c-0.1,0.7-0.5,7,0.6,9.9c0.3,0.6,0.9,1,1.5,1
			c0.2,0,0.4,0,0.6-0.1c0.8-0.3,1.2-1.3,0.9-2.1l0,0c-0.5-1.2-0.6-4-0.5-6.3c1.9,2,3.6,3.7,4.5,4.5c1.6,1.4,3.7,2.2,5.8,2.3
			c0.5,0,1-0.1,1.4-0.2c0.9-0.3,1.3-1.1,1.1-2l0,0c-0.2-0.9-1.1-1.4-2-1.1c-0.1,0-1.9,0.4-4.2-1.5c-3.1-2.6-15.2-16.2-16-17.8
			c-0.1-0.2-0.3-0.4-0.6-0.6v-12.2c0.6,1.8,1.2,3.5,1.8,4.9c3.1,7,10.2,10.3,10.5,10.5c0.2,0.1,0.4,0.1,0.7,0.1
			c0.9,0,1.6-0.8,1.6-1.7c0-0.6-0.4-1.2-0.9-1.4c-0.1,0-6.3-3-8.8-8.8c-1.9-4.3-4.5-13.5-4.5-13.6c-0.1-0.4-0.3-0.7-0.6-0.9
			c-0.2-0.2-0.4-0.3-0.6-0.3c-0.9-0.3-1.7,0.2-2,1.1l0,0c0,0.1-2.7,9.1-4.6,13.5c-2.6,5.9-8.8,8.8-8.8,8.8c-0.8,0.4-1.2,1.3-0.8,2.1
			c0.3,0.6,0.9,1,1.5,1c0.2,0,0.5-0.1,0.7-0.1c0.3-0.1,7.4-3.5,10.4-10.5c0.4-1,0.9-2.1,1.3-3.4V133c-0.1,0.1-0.2,0.2-0.3,0.4
			c-0.9,1.6-12.9,15.2-16.1,17.8c-2.3,1.9-4.1,1.5-4.2,1.5c-0.9-0.2-1.7,0.4-1.9,1.3c-0.2,0.8,0.3,1.6,1,1.9
			c0.5,0.1,0.9,0.2,1.4,0.2c2.1-0.1,4.2-0.9,5.8-2.3c0.9-0.8,2.6-2.4,4.5-4.5c0.1,2.3,0,5-0.5,6.3c-0.2,0.9,0.3,1.8,1.2,2
			c0.7,0.2,1.5-0.1,1.8-0.8c1.2-2.9,0.7-9.1,0.6-9.9c0-0.3-0.1-0.5-0.3-0.7c2.5-2.8,5.1-5.7,6.9-7.9v15.4
			c-4.1,6.2-8.7,10.4-13.4,12.4c-1.7,0.8-3.7,0.9-5.4,0.1c-0.8-0.4-1.8-0.1-2.2,0.8c-0.4,0.7-0.1,1.6,0.6,2.1c1.3,0.7,2.7,1,4.1,1
			c1.4,0,2.9-0.3,4.2-0.9c4.3-1.8,8.4-5.1,12.2-9.9v9.7c-0.2,0.1-0.4,0.3-0.5,0.5c-1,1.6-14.1,15.2-17.5,17.8
			c-2.6,2-4.7,1.6-4.8,1.5c-0.9-0.2-1.7,0.4-1.9,1.3C48.5,190.9,48.9,191.7,49.7,191.9L49.7,191.9z"/>
		<path class="st0" d="M94.3,133.5c0.4,0.1,0.9,0.1,1.3,0.1c1.9,0,3.7-0.7,5.1-1.9c0.8-0.6,2.3-2,4-3.6c0.1,1.6,0,3.2-0.4,4.8
			c-0.3,0.8,0,1.7,0.8,2l0,0c0.2,0.1,0.4,0.1,0.6,0.1c0.6,0,1.1-0.4,1.4-0.9c1-2.4,0.6-7.6,0.6-8.2c0-0.2-0.1-0.4-0.2-0.5
			c2.2-2.3,4.5-4.6,6.1-6.4v13.3c-3.9,5-8.1,8.3-12.6,10c-1.7,0.7-3.6,0.7-5.4,0.1c-0.7-0.4-1.6-0.1-2,0.7c-0.4,0.7-0.1,1.6,0.7,2
			l0,0c1.2,0.5,2.5,0.8,3.8,0.8s2.6-0.2,3.9-0.7c4.5-1.7,8.5-4.5,11.6-8.1v17.4c0,0.5,0.2,1,0.6,1.2l-6.2,7l-0.1,0.1l-0.1,0.1l0,0
			l-0.1,0.1l0,0c0,0,0,0,0,0.1s-0.1,0.1-0.1,0.2v0.1l0,0c0,0.1,0,0.1,0,0.2v33.3c0,0.8,0.7,1.5,1.5,1.5h44.5c0.1,0,0.2,0,0.3-0.1
			h0.1c0.1,0,0.2-0.1,0.2-0.1h0.1c0.8-0.4,18.9-10.9,31.3-33.9c9.6-17.8,14.6-40.7,16.9-54.7v87c0,0.8,0.7,1.5,1.5,1.5
			s1.5-0.7,1.5-1.5v-87.2c2.3,14,7.3,36.9,16.9,54.8c12.2,22.9,30.4,33.4,31.2,33.9h0.1c0.1,0,0.2,0.1,0.2,0.1h0.1
			c0.1,0,0.2,0,0.3,0.1h44.5c0.8,0,1.5-0.7,1.5-1.5v-33.3c0-0.2-0.1-0.5-0.2-0.7l0,0l-0.1-0.1l0,0c0-0.1-0.1-0.1-0.1-0.2l-3.9-4.4
			v-6.7c3.4,4.1,7.9,7.3,12.9,9.2c1.3,0.5,2.7,0.7,4.1,0.7s2.7-0.2,4-0.8c0.7-0.4,1-1.3,0.7-2c-0.4-0.7-1.3-1-2-0.7
			c-1.9,0.7-3.9,0.7-5.8-0.1c-5-1.8-9.6-5.5-13.8-11.1l0,0v-14c1.7,1.9,4.2,4.5,6.7,7c-0.1,0.2-0.2,0.4-0.2,0.6
			c0,0.6-0.5,6.1,0.6,8.7c0.2,0.5,0.8,0.9,1.4,0.9c0.2,0,0.4,0,0.6-0.1c0.8-0.3,1.1-1.2,0.8-2l0,0c-0.5-1.8-0.6-3.6-0.5-5.4
			c1.9,1.8,3.5,3.3,4.4,4c1.5,1.2,3.4,1.9,5.4,2c0.4,0,0.9,0,1.3-0.1c0.8-0.2,1.2-1,1-1.8s-1-1.3-1.8-1.1c-1.5,0.2-3-0.3-4.2-1.3
			c-3-2.3-14.4-14.1-15.2-15.5c-0.1-0.2-0.2-0.3-0.4-0.4v-8.4c2.8,3.7,6.4,6.7,10.6,8.6c1.2,0.5,2.4,0.8,3.7,0.8
			c1.3,0,2.5-0.3,3.6-0.9c0.7-0.4,0.9-1.3,0.5-2s-1.3-1-2-0.6c-1.5,0.7-3.2,0.6-4.7-0.1c-4.2-1.8-8.2-5.4-11.8-11v-13.2
			c1.6,1.9,3.9,4.5,6,6.9c-0.1,0.2-0.2,0.4-0.2,0.6c0,0.6-0.5,6.1,0.5,8.6c0.2,0.6,0.8,0.9,1.4,0.9c0.2,0,0.4,0,0.6-0.1
			c0.8-0.3,1.1-1.2,0.8-1.9c-0.4-1.7-0.6-3.5-0.5-5.2c1.6,1.7,3,3.1,3.8,3.8c1.4,1.3,3.2,2,5.1,2c0.4,0,0.9,0,1.3-0.2
			c0.8-0.2,1.3-1,1.1-1.8c-0.2-0.8-1-1.3-1.8-1.1h-0.1c0,0-1.6,0.4-3.6-1.3c-2.7-2.3-13.2-14.1-14-15.5c-0.1-0.2-0.3-0.4-0.5-0.5
			V86.1c0.4,1.4,0.9,2.8,1.4,4.2c2.7,6.1,8.9,9,9.1,9.1s0.4,0.1,0.6,0.1c0.8,0,1.5-0.7,1.5-1.5c0-0.6-0.3-1.1-0.9-1.4
			c0,0-5.4-2.6-7.6-7.7c-1.6-3.7-3.9-14.1-3.9-14.2c-0.1-0.4-0.3-0.8-0.7-1c-0.7-0.5-1.6-0.4-2.1,0.3c-0.1,0.2-0.2,0.4-0.3,0.6
			c0,0.1-2.3,10.4-4,14.1c-2.2,5.1-7.6,7.6-7.7,7.6c-0.8,0.4-1.1,1.3-0.7,2c0.2,0.5,0.8,0.8,1.3,0.9c0.2,0,0.4,0,0.6-0.1
			c0.3-0.1,6.5-3,9.1-9.2c0.3-0.7,0.6-1.6,1-2.7v9.5c-0.1,0.1-0.2,0.2-0.3,0.3c-0.8,1.4-11.2,13.2-14,15.5c-2,1.6-3.5,1.3-3.6,1.3
			c-0.8-0.2-1.6,0.3-1.8,1.1c-0.2,0.8,0.2,1.5,1,1.8c0.4,0.1,0.9,0.2,1.3,0.2c1.9,0,3.7-0.8,5.1-2c0.8-0.6,2.1-2,3.8-3.8
			c0.1,1.8,0,3.5-0.5,5.2c-0.3,0.8,0.1,1.6,0.8,1.9c0.2,0.1,0.4,0.1,0.6,0.1c0.6,0,1.2-0.4,1.4-0.9c1-2.5,0.6-8,0.6-8.6
			c0-0.2-0.1-0.4-0.2-0.6c2.1-2.3,4.2-4.8,5.8-6.6v13.2c-3.6,5.4-7.5,9-11.6,10.7c-1.5,0.7-3.2,0.7-4.7,0.1
			c-0.7-0.4-1.6-0.2-2.1,0.6c-0.4,0.7-0.2,1.6,0.6,2.1c1.1,0.6,2.4,0.9,3.7,0.9c1.3,0,2.5-0.3,3.7-0.8c4.2-1.9,7.8-4.7,10.6-8.3v8.1
			c-0.2,0.1-0.3,0.3-0.4,0.4c-0.6,1-7.3,8-11.8,12.4l-21-23.5v-12.7c2.6,2.9,5.9,5.2,9.5,6.6c1.1,0.4,2.2,0.6,3.3,0.6
			c1.1,0,2.2-0.2,3.3-0.7c0.7-0.4,1-1.3,0.7-2l0,0c-0.4-0.7-1.3-1.1-2-0.7c-1.4,0.5-2.9,0.5-4.2-0.1c-3.8-1.4-7.3-4.2-10.5-8.4v-9.8
			c1.3,1.4,2.9,3,4.4,4.6c0,0.1-0.1,0.2-0.1,0.4c-0.1,0.8-0.4,4.9,0.5,6.9c0.3,0.8,1.2,1.1,2,0.8c0.8-0.3,1.1-1.2,0.8-2l0,0
			c-0.3-1.1-0.4-2.2-0.4-3.3c1.3,1.2,2.3,2.2,2.9,2.6c1.2,1,2.8,1.6,4.4,1.6c0.4,0,0.8,0,1.1-0.1c0.8-0.2,1.2-1,1-1.8
			s-1-1.3-1.8-1.1c-1.1,0.1-2.2-0.3-2.9-1c-4.1-3.7-8-7.7-11.7-11.9c-0.1-0.1-0.1-0.2-0.2-0.3v-5.4c2.1,2.6,4.7,4.6,7.8,6
			c1,0.4,2,0.6,3,0.6s2.1-0.2,3-0.7c0.7-0.4,0.9-1.3,0.5-2s-1.3-1-2-0.6c-1.1,0.5-2.3,0.4-3.3-0.1c-3.2-1.3-6.2-4.1-8.9-8.3V66
			c1.1,1.3,2.6,2.9,4,4.5c0,0.1-0.1,0.3-0.1,0.4c-0.1,0.8-0.3,4.8,0.5,6.8c0.2,0.6,0.8,0.9,1.4,0.9c0.2,0,0.4,0,0.6-0.1
			c0.8-0.3,1.2-1.2,0.9-1.9c0,0,0,0,0-0.1c-0.3-1-0.4-2-0.3-3.1c1,1.1,1.9,1.9,2.4,2.3c1.1,1,2.6,1.6,4.1,1.7c0.4,0,0.7,0,1.1-0.1
			c0.8-0.2,1.2-1.1,1-1.9s-1.1-1.2-1.9-1c-0.9,0.1-1.8-0.3-2.5-0.9c-3.8-3.8-7.4-7.7-10.7-11.9c-0.1-0.1-0.2-0.3-0.3-0.4v-5.8
			c0.2,0.4,0.3,0.9,0.5,1.2c1.5,3.2,4,5.7,7.1,7.3c0.2,0.1,0.4,0.1,0.6,0.1c0.8,0,1.5-0.7,1.5-1.5c0-0.6-0.3-1.1-0.9-1.4
			c-2.5-1.2-4.5-3.3-5.8-5.8c-1.3-2.9-3-10.9-3-11c-0.1-0.4-0.3-0.7-0.6-0.9c-0.2-0.1-0.4-0.2-0.6-0.3c-0.8-0.2-1.6,0.3-1.8,1.1l0,0
			c0,0.1-1.8,8-3,10.9c-1.3,2.5-3.3,4.5-5.8,5.8c-0.8,0.3-1.1,1.2-0.7,2l0,0c0.3,0.8,1.2,1.1,2,0.8l0,0c3.2-1.6,5.7-4.1,7.2-7.3
			c0-0.1,0.1-0.2,0.1-0.3v5.3c-0.1,0.1-0.1,0.1-0.1,0.2c-3.3,4.2-6.9,8.2-10.7,11.9c-0.7,0.7-1.6,1-2.5,0.9c-0.8-0.2-1.6,0.2-1.9,1
			s0.2,1.6,1,1.9c0.4,0.1,0.7,0.1,1.1,0.1c1.5,0,3-0.6,4.1-1.6c0.5-0.4,1.3-1.2,2.4-2.3c0,1-0.1,2.1-0.3,3.1c-0.3,0.8,0,1.7,0.8,2
			l0,0c0.2,0.1,0.4,0.1,0.6,0.1c0.6,0,1.2-0.4,1.4-0.9c0.8-2,0.5-6,0.5-6.8c0-0.1,0-0.3-0.1-0.4c1.3-1.5,2.7-3,3.8-4.3v9.2
			c-2.7,4.1-5.7,6.8-8.8,8.1c-1,0.5-2.3,0.5-3.3,0.1c-0.7-0.4-1.6-0.1-2,0.7c-0.4,0.7-0.1,1.5,0.5,1.9c0.9,0.5,2,0.7,3,0.7
			s2-0.2,3-0.6c3-1.3,5.6-3.4,7.7-5.9v5.2c-0.1,0.1-0.2,0.2-0.3,0.3c-3.7,4.2-7.6,8.2-11.8,11.9c-0.5,0.4-1,0.7-1.6,0.8L227.5,81
			c1.8,1.6,3.8,2.8,6.1,3.7c0.9,0.3,1.8,0.5,2.8,0.5s1.9-0.2,2.8-0.6c0.6-0.3,0.9-1,0.6-1.7l0,0c-0.3-0.6-1.1-0.9-1.7-0.6l0,0
			c-1.1,0.4-2.4,0.4-3.5-0.1c-3.5-1.4-6.5-3.8-8.6-6.8v-8.6c1.1,1.2,2.5,2.6,3.8,4c0,0.1-0.1,0.2-0.1,0.3c-0.1,0.7-0.3,4.1,0.4,5.8
			c0.2,0.5,0.7,0.8,1.1,0.8c0.7,0,1.3-0.6,1.2-1.3c0-0.2,0-0.3-0.1-0.5c-0.3-0.9-0.4-1.9-0.3-2.8c0.8,0.8,1.6,1.5,2.4,2.2
			c1,0.9,2.3,1.3,3.7,1.4c0.3,0,0.6,0,1-0.1c0.7-0.2,1-0.8,0.9-1.5c-0.2-0.7-0.8-1.1-1.5-0.9c-0.9,0.1-1.8-0.2-2.5-0.8
			c-3.5-3.1-6.8-6.5-9.9-10c-0.1-0.1-0.1-0.2-0.2-0.2v-4.6c1.7,2.2,4,3.9,6.5,5c0.8,0.3,1.6,0.5,2.5,0.5s1.7-0.2,2.5-0.6
			c0.6-0.3,0.9-1.1,0.6-1.7s-1.1-0.9-1.7-0.6c0,0-0.1,0-0.1,0.1c-0.9,0.4-1.9,0.4-2.8-0.1c-2.6-1.1-5.1-3.4-7.4-6.8v-7.8
			c1,1.1,2.1,2.4,3.2,3.7c0,0.1-0.1,0.2-0.1,0.3c0,0.7-0.3,4.1,0.4,5.8c0.2,0.5,0.6,0.8,1.2,0.8c0.2,0,0.3,0,0.5-0.1
			c0.6-0.3,0.9-1,0.7-1.6l0,0c-0.2-0.9-0.3-1.8-0.3-2.6c0.9,0.9,1.6,1.6,2,2c1,0.9,2.2,1.4,3.5,1.4c0.3,0,0.6,0,0.9-0.1
			c0.6-0.2,1-0.9,0.8-1.5s-0.9-1-1.5-0.9c-0.8,0.1-1.6-0.2-2.1-0.8c-3.2-3.2-6.2-6.5-9-10c0-0.1-0.1-0.1-0.1-0.2v-4.6l0.1,0.3
			c1.3,2.7,3.4,4.8,6.1,6.1c0.6,0.3,1.4,0,1.7-0.6s0-1.4-0.6-1.7c-2.1-1-3.8-2.7-4.9-4.8c-1-3-1.9-6.1-2.6-9.2
			c-0.1-0.7-0.8-1.1-1.5-1c-0.2,0-0.3,0.1-0.5,0.2c-0.3,0.2-0.5,0.5-0.5,0.8c0,0.1-1.5,6.8-2.5,9.2c-1.1,2.1-2.8,3.8-4.9,4.8
			c-0.6,0.3-0.9,1-0.6,1.7c0.2,0.5,0.7,0.7,1.2,0.7c0.2,0,0.4,0,0.5-0.1c2.7-1.3,4.8-3.5,6.1-6.1c0.1-0.3,0.3-0.7,0.4-1.1v5.1
			c-0.1,0.1-0.2,0.2-0.3,0.3c-2.8,3.5-5.9,6.8-9.1,10c-0.6,0.6-1.3,0.8-2.1,0.8c-0.7-0.2-1.3,0.2-1.5,0.8c-0.2,0.7,0.2,1.4,0.8,1.6
			c0.3,0.1,0.6,0.1,0.9,0.1c1.3,0,2.6-0.5,3.5-1.4c0.4-0.4,1.2-1.1,2-2c0,0.9-0.1,1.8-0.3,2.6c-0.3,0.6,0,1.4,0.7,1.6l0,0
			c0.1,0.1,0.3,0.1,0.5,0.1c0.5,0,1-0.3,1.2-0.8c0.7-1.7,0.4-5.1,0.4-5.8c0-0.1,0-0.2-0.1-0.3c1.2-1.3,2.4-2.7,3.4-3.8v7.8
			c-2.3,3.5-4.9,5.9-7.5,7c-0.9,0.4-1.9,0.4-2.8,0.1c-0.6-0.3-1.3-0.1-1.7,0.5c-0.1,0.2-0.2,0.5-0.1,0.7l-5.2-5.8
			c-0.2-0.2-0.3-0.3-0.6-0.4V28.7c3-2.4,11-3.4,18.5-4.1c15.4-1.3,20.6-11.7,20.8-12.2c0.4-0.7,0-1.6-0.7-2c-0.3-0.1-0.7-0.2-1-0.1
			c-0.1,0-7.3,1.7-12.7,1.2c-4.8-0.4-8.6-2.3-12.2-4.1c-3.8-1.9-7.8-3.9-12.8-3.9v-2c0-0.8-0.7-1.5-1.5-1.5s-1.5,0.7-1.5,1.5v46.7
			c-0.4-0.2-0.9-0.4-1.2-0.7c-3.5-3.4-6.7-7-9.8-10.8c-0.1-0.1-0.2-0.3-0.3-0.4v-6.1c0.2,0.7,0.4,1.3,0.6,1.7
			c1.4,2.8,3.7,5.1,6.5,6.5c0.2,0.1,0.3,0.1,0.5,0.1c0.5,0,0.9-0.3,1.1-0.7c0.3-0.6,0-1.4-0.6-1.7c-2.3-1.2-4.1-3-5.3-5.3
			c-1.1-2.6-2.7-9.9-2.7-10c-0.1-0.3-0.3-0.6-0.6-0.8c-0.1-0.1-0.3-0.2-0.5-0.2c-0.7-0.2-1.3,0.3-1.5,0.9l0,0c0,0.1-1.6,7.3-2.8,9.9
			c-1.1,2.3-3,4.2-5.3,5.3c-0.6,0.3-0.9,1-0.6,1.7c0.2,0.5,0.7,0.7,1.2,0.7c0.2,0,0.4,0,0.5-0.1c2.8-1.4,5.1-3.7,6.5-6.5
			c0.1-0.2,0.2-0.5,0.3-0.8v5.5c-0.1,0.1-0.1,0.1-0.2,0.2c-3,3.8-6.3,7.4-9.8,10.8c-0.6,0.6-1.5,1-2.4,0.9c-0.7-0.2-1.3,0.2-1.5,0.8
			c-0.2,0.7,0.2,1.3,0.8,1.5l0,0c0.3,0.1,0.7,0.1,1,0.1c1.4,0,2.7-0.6,3.7-1.5c0.5-0.4,1.3-1.3,2.3-2.3c0.1,1,0,2.1-0.3,3.1
			c-0.3,0.6,0.1,1.4,0.7,1.6c0.1,0.1,0.3,0.1,0.4,0.1c0.5,0,1-0.3,1.2-0.8c0.7-1.8,0.5-5.4,0.4-6.2c0-0.1-0.1-0.3-0.1-0.4
			c1.3-1.4,2.6-2.9,3.7-4.2v8.7c-2.5,3.7-5.2,6.2-8.1,7.4c-1,0.5-2.1,0.5-3.1,0.1c-0.6-0.3-1.4-0.1-1.7,0.5s-0.1,1.3,0.5,1.7
			c0.8,0.4,1.7,0.6,2.7,0.6c0.9,0,1.8-0.2,2.6-0.5c2.8-1.3,5.2-3.2,7.1-5.6v5.1c-0.1,0.1-0.2,0.2-0.3,0.3
			c-3.3,3.8-6.9,7.4-10.7,10.8c-0.8,0.7-1.8,1-2.8,0.9c-0.7-0.1-1.3,0.3-1.5,1c-0.1,0.6,0.2,1.2,0.8,1.4c0.3,0.1,0.7,0.1,1,0.1
			c1.4,0,2.8-0.5,3.9-1.4c0.6-0.4,1.6-1.4,2.8-2.5c0.1,1.1,0,2.2-0.3,3.3c-0.3,0.6,0,1.4,0.6,1.6l0,0c0.6,0.3,1.3,0,1.6-0.6
			c0,0,0,0,0-0.1c0.8-1.8,0.5-5.5,0.4-6.2c0-0.1-0.1-0.2-0.1-0.4c1.6-1.6,3.1-3.2,4.3-4.5v9.6c-0.2,0.3-0.5,0.6-0.7,0.9l-1.4,1.6
			c-2,2.2-4.5,3.9-7.3,4.9c-1.3,0.5-2.7,0.5-3.9,0.1c-0.6-0.3-1.4,0-1.7,0.6s0,1.4,0.6,1.7c0.9,0.4,1.9,0.6,2.9,0.6s1.9-0.2,2.8-0.5
			L168,94.2c-4.5-4.1-8.8-8.5-12.8-13.1c-0.1-0.1-0.2-0.2-0.3-0.3v-6.5c2.3,3,5.4,5.4,8.9,7c1,0.4,2.1,0.7,3.2,0.7
			c1.1,0,2.2-0.2,3.2-0.8c0.7-0.4,0.9-1.3,0.5-2s-1.3-1-2-0.6c-1.2,0.5-2.6,0.5-3.8-0.1c-3.6-1.5-6.9-4.6-10-9.3V58.7
			c1.3,1.6,3,3.5,4.7,5.4c-0.1,0.2-0.1,0.3-0.1,0.5c0,0.5-0.4,5.3,0.5,7.5c0.2,0.6,0.8,0.9,1.4,0.9c0.2,0,0.4,0,0.6-0.1
			c0.8-0.3,1.2-1.2,0.9-2l0,0c-0.3-1.3-0.5-2.6-0.4-3.9c1.2,1.3,2.3,2.3,2.9,2.9c1.2,1.1,2.8,1.7,4.5,1.8c0.4,0,0.8,0,1.2-0.1
			c0.8-0.2,1.2-1,1-1.8s-1-1.3-1.8-1.1c-1.1,0.1-2.2-0.3-2.9-1.1c-4.2-4.2-8.2-8.6-11.9-13.2c-0.1-0.2-0.2-0.3-0.4-0.4v-7.5
			c0.2,0.8,0.5,1.5,0.8,2.3c1.7,3.5,4.5,6.3,8,8c0.2,0.1,0.4,0.1,0.6,0.1c0.8,0,1.5-0.7,1.5-1.5c0-0.6-0.3-1.1-0.9-1.4
			c0,0-4.6-2.2-6.5-6.4c-1.4-3.2-3.3-12.1-3.3-12.2c-0.1-0.4-0.3-0.7-0.7-0.9c-0.6-0.5-1.6-0.4-2.1,0.2c-0.1,0.2-0.2,0.4-0.3,0.6
			c0,0.1-2,8.9-3.4,12.1c-1.9,4.3-6.4,6.4-6.5,6.4c-0.8,0.4-1.1,1.3-0.7,2c0.2,0.5,0.8,0.8,1.3,0.9c0.2,0,0.4-0.1,0.6-0.1
			c0.2-0.1,5.6-2.6,8-8c0.1-0.3,0.3-0.7,0.4-1.1v6.8c-0.1,0.1-0.1,0.2-0.2,0.3c-3.7,4.6-7.7,9.1-11.9,13.2c-0.8,0.8-1.8,1.2-2.9,1.1
			c-0.8-0.2-1.6,0.2-1.9,1s0.2,1.6,1,1.9c0.4,0.1,0.8,0.1,1.2,0.1c1.7,0,3.3-0.7,4.5-1.8c0.6-0.5,1.7-1.6,2.9-2.9
			c0.1,1.3-0.1,2.6-0.4,3.9c-0.3,0.8,0,1.7,0.8,2l0,0c0.2,0.1,0.4,0.1,0.6,0.1c0.6-0.1,1.1-0.4,1.3-1c0.9-2.2,0.5-7,0.5-7.5
			c0-0.2-0.1-0.3-0.1-0.5c1.6-1.8,3.2-3.6,4.5-5.2v10.7c-3,4.6-6.4,7.6-9.9,9.1c-1.2,0.6-2.6,0.6-3.8,0.1c-0.7-0.4-1.6-0.1-2,0.7
			c-0.4,0.7-0.1,1.5,0.5,1.9c1,0.5,2.1,0.8,3.2,0.8c1.1,0,2.2-0.2,3.2-0.7c3.4-1.5,6.4-3.9,8.7-6.8V81c-0.1,0.1-0.2,0.2-0.3,0.4
			c-4.1,4.7-8.4,9.1-13,13.2c-0.9,0.8-2.2,1.2-3.4,1.1c-0.8-0.2-1.6,0.3-1.8,1.1c-0.2,0.8,0.3,1.6,1.1,1.8l0,0
			c0.4,0.1,0.8,0.1,1.2,0.1c1.7,0,3.4-0.7,4.8-1.8c0.7-0.5,2-1.7,3.4-3.1c0.1,1.4,0,2.7-0.4,4.1c-0.3,0.8,0,1.6,0.7,2l0,0
			c0.2,0.1,0.4,0.1,0.6,0.1c0.6,0,1.1-0.4,1.4-0.9c1-2.2,0.6-6.7,0.6-7.6c0-0.2-0.1-0.3-0.1-0.5c1.9-1.9,3.9-4,5.3-5.6v11.8
			c-3.5,4.5-7.4,7.6-11.5,9c-1.5,0.6-3.2,0.6-4.8,0.1c-0.7-0.4-1.6-0.1-2,0.7c-0.4,0.7-0.1,1.6,0.7,2c1.1,0.5,2.3,0.7,3.6,0.7
			c1.2,0,2.4-0.2,3.6-0.6c4-1.5,7.6-4,10.4-7.2v10.6l-16.4,18.3c-0.4-0.3-0.8-0.3-1.2-0.2c-1.4,0.1-2.8-0.3-3.8-1.2
			c-2.8-2.1-13.5-13.2-14.3-14.5c-0.1-0.1-0.2-0.3-0.3-0.4v-7.6c2.6,3.4,6,6.1,9.9,7.9c1.1,0.5,2.3,0.7,3.5,0.7
			c1.2,0,2.4-0.3,3.5-0.8c0.7-0.4,0.9-1.3,0.6-2c-0.4-0.7-1.3-0.9-2-0.6c-1.4,0.6-2.9,0.6-4.3-0.1c-3.9-1.6-7.6-5.1-11-10.2V89.7
			c1.5,1.8,3.5,4.1,5.5,6.2c-0.1,0.2-0.1,0.4-0.2,0.6c-0.1,0.6-0.4,5.7,0.5,8.1c0.2,0.6,0.8,0.9,1.4,0.9c0.2,0,0.4,0,0.6-0.1
			c0.8-0.3,1.2-1.2,0.9-2l0,0c-0.4-1.5-0.5-3.1-0.4-4.6c1.4,1.5,2.7,2.8,3.4,3.4c1.3,1.2,3,1.9,4.8,1.9c0.4,0,0.8,0,1.3-0.1
			c0.8-0.2,1.2-1,1-1.8l0,0c-0.2-0.8-1-1.2-1.8-1.1c-1.2,0.1-2.5-0.3-3.3-1.2c-2.5-2.1-12.4-13.2-13.1-14.5
			c-0.1-0.2-0.3-0.4-0.4-0.5v-9.3c0.3,1.1,0.6,2.3,1.1,3.4c2.6,5.8,8.4,8.5,8.6,8.6s0.4,0.1,0.6,0.1c0.8,0,1.5-0.7,1.5-1.5
			c0-0.6-0.3-1.1-0.9-1.4c-0.1,0-5.1-2.4-7.1-7.1c-1.5-3.5-3.6-13.2-3.7-13.3c-0.2-0.6-0.6-1.1-1.2-1.2c-0.8-0.2-1.6,0.3-1.8,1.1
			l0,0c0,0.1-2.2,9.7-3.7,13.2c-2.1,4.7-7.1,7.1-7.1,7.1c-0.8,0.3-1.1,1.2-0.7,2c0.2,0.5,0.8,0.9,1.4,0.9c0.2,0,0.4,0,0.6-0.1
			s6.1-2.9,8.6-8.6c0.2-0.6,0.5-1.2,0.8-2v8.3c-0.1,0.1-0.2,0.2-0.2,0.3c-0.7,1.3-10.5,12.4-13.1,14.5c-0.9,0.9-2.1,1.3-3.3,1.2
			c-0.8-0.2-1.6,0.3-1.8,1.1c-0.2,0.8,0.2,1.5,1,1.8c0.4,0.1,0.8,0.2,1.2,0.1c1.8,0,3.5-0.7,4.8-1.9c0.7-0.6,1.9-1.8,3.4-3.4
			c0.1,1.6,0,3.1-0.4,4.6c-0.3,0.8,0,1.6,0.8,2c0,0,0,0,0.1,0c0.2,0.1,0.4,0.1,0.6,0.1c0.6,0,1.2-0.4,1.4-0.9
			c0.9-2.4,0.6-7.6,0.5-8.1c0-0.2-0.1-0.4-0.2-0.6c1.9-2.1,3.8-4.3,5.3-6v12.2c-3.3,5-7,8.4-10.9,10c-1.4,0.7-2.9,0.7-4.3,0.1
			c-0.7-0.4-1.6-0.1-2,0.7c-0.4,0.7-0.1,1.5,0.5,1.9c1.1,0.6,2.3,0.8,3.5,0.8s2.4-0.3,3.5-0.7c3.8-1.7,7.2-4.4,9.7-7.7v7.3
			c-0.2,0.1-0.3,0.2-0.4,0.4c-0.8,1.3-11.5,12.4-14.3,14.5c-1,0.9-2.4,1.4-3.8,1.2c-0.8-0.2-1.6,0.3-1.8,1.1
			C93,132.5,93.5,133.3,94.3,133.5z M253.2,194.1c-11.7-8.1-21.3-18.9-28.1-31.4c-7.5-13.9-12.1-31.1-14.9-44.4
			c3.6,9.9,9.1,19.5,17.3,26.7c11.2,9.7,24.8,16.3,39.3,19C256.3,175.1,253.8,188.5,253.2,194.1z M297.6,165.2v30h-41.4
			c0.4-4.7,2.7-19.4,14.3-30.5C279.4,166.1,288.6,166.3,297.6,165.2L297.6,165.2z M293.2,132.7v14.4c-1,1.3-2.2,2.6-3.3,3.8
			l-6.9-7.7C286.3,140.1,290.7,135.6,293.2,132.7L293.2,132.7z M293.2,151.8v2.9l-1.3-1.5C292.4,152.7,292.8,152.3,293.2,151.8
			L293.2,151.8z M246.9,100.4c0.6-0.4,1.6-1.4,2.9-2.6c0.1,1.1-0.1,2.2-0.4,3.3c-0.3,0.8,0,1.7,0.8,2l0,0c0.2,0.1,0.4,0.1,0.6,0.1
			c0.6,0,1.1-0.4,1.4-0.9c0.9-2,0.6-6.1,0.5-6.9c0-0.1,0-0.3-0.1-0.4c1.6-1.6,3.2-3.3,4.5-4.7v10.2c-1.8,2.4-4,4.5-6.6,6.2l-4.9-5.5
			C246.1,101,246.5,100.7,246.9,100.4z M257.1,105.1v9l-4.6-5.1C254.2,107.8,255.7,106.5,257.1,105.1z M214.5,64.4
			c0.9,0,1.7-0.2,2.5-0.5c2.6-1.2,4.8-2.9,6.6-5.1v4.6c-0.1,0.1-0.1,0.1-0.2,0.2c-0.4,0.5-3.2,3.6-5.8,6.2l-5.1-5.7
			C213.1,64.3,213.8,64.4,214.5,64.4L214.5,64.4z M223.5,67.1v8.1c-0.1,0-0.1,0.1-0.2,0.1c-0.1,0.2-0.2,0.3-0.4,0.5l-3.8-4.2
			C220.7,70.1,222.3,68.5,223.5,67.1L223.5,67.1z M206.2,61.6l10.1,11.3l0.7,0.8l3.9,4.4l1.7,2l17.7,19.9l1.4,1.6l6,6.7l2.1,2.3
			l46.2,51.8l-0.8,0.1h-0.4h-0.3l-1.4,0.1c-11.9,0.9-40.6,0.6-63.7-19.8c-17.6-15.6-22.4-43.2-23.3-62.6c0-0.3,0-0.5,0-0.8
			s0-0.7,0-1s0-0.8,0-1.1s0-0.8,0-1.2c0-0.2,0-0.5,0-0.7c0-0.9,0-1.8,0-2.7v-2C206,66.9,206.1,63.8,206.2,61.6L206.2,61.6z
			 M205.6,6.5c4.3,0,7.6,1.7,11.4,3.6s7.9,3.9,13.2,4.4c3.3,0.2,6.7,0,9.9-0.6c-2.5,2.8-7.5,6.9-16.4,7.7
			c-8.1,0.7-14.4,1.6-18.2,3.5L205.6,6.5z M110.6,195.2v-30h0.1l0.6,0.1h0.2l0.6,0.1h0.3l1,0.1h0.5l0.6,0.1h0.6h0.6h0.7h0.6h0.8h0.6
			h1.5h0.7h3.4h0.8l1.6-0.1h0.7l1.2-0.1l0.8-0.1l1.2-0.1l0.7-0.1l1.9-0.2l0.5-0.1l1.6-0.2l0.7-0.1l1.6-0.2h0.4
			c11.6,11.1,13.9,25.8,14.3,30.5L110.6,195.2z M183,162.7c-6.8,12.5-16.4,23.2-28.1,31.4c-0.6-5.6-3.1-19-13.6-30.1h0.2l2.1-0.4
			l0.2-0.1c0.6-0.1,1.3-0.3,2-0.5l0.7-0.2l1.5-0.4l0.8-0.2l1.6-0.5l0.6-0.2c0.8-0.2,1.5-0.5,2.3-0.7l0.4-0.1
			c0.6-0.2,1.2-0.4,1.9-0.7l0.7-0.3l1.6-0.6l0.8-0.3c0.6-0.2,1.2-0.5,1.8-0.8l0.5-0.2c0.8-0.4,1.5-0.7,2.3-1.1l0.6-0.3
			c0.6-0.3,1.2-0.6,1.8-0.9l0.8-0.4l1.6-0.9l0.7-0.4l1.9-1.2l0.3-0.2l2.2-1.5l0.6-0.4c0.5-0.4,1.1-0.8,1.6-1.2l0.8-0.6
			c0.5-0.4,1-0.8,1.6-1.2l0.7-0.6c0.7-0.6,1.5-1.2,2.2-1.9c7-6.3,12.6-14,16.4-22.5C194.2,135.1,189.8,150.2,183,162.7L183,162.7z
			 M191.2,40.2c1.1,1.3,2.5,2.9,3.8,4.4c-0.1,0.1-0.1,0.3-0.1,0.4c-0.1,0.7-0.3,4.4,0.4,6.2c0.3,0.6,1,1,1.6,0.7s1-1,0.7-1.6l0,0
			c-0.3-1-0.4-2.1-0.3-3.1c1,1,1.8,1.9,2.3,2.3c0.8,0.7,1.8,1.2,2.8,1.4v5.8c-0.1,0-0.2,0.1-0.3,0.2c-0.9,0.3-1.9,0.2-2.8-0.2
			c-2.9-1.2-5.7-3.8-8.2-7.6v-8.9H191.2z M191.2,53.2c1.9,2.5,4.4,4.4,7.2,5.7c0.5,0.2,0.9,0.3,1.4,0.4l-3.9,4.3
			c-2.2-2.3-4.3-4.5-4.6-5c-0.1-0.1-0.1-0.2-0.2-0.2v-5.2H191.2z M191.2,62.2c0.9,1,2,2.1,3.1,3.3l-3.1,3.5V62.2z M155.5,85.5
			c3.2,3.5,8.8,9.2,11.1,11.1l-5.4,6.1c-2.1-1.7-4-3.7-5.6-5.9L155.5,85.5z M155.5,101.5c1.1,1.2,2.4,2.4,3.7,3.4l-3.6,4.1
			L155.5,101.5z M116.5,119c1.6,1.8,3.9,4.1,6.1,6.4c-0.1,0.2-0.1,0.4-0.2,0.5c-0.1,0.6-0.5,5.8,0.6,8.2c0.2,0.5,0.8,0.9,1.4,0.9
			c0.2,0,0.4,0,0.6-0.1c0.8-0.3,1.1-1.2,0.8-2l0,0c-0.4-1.6-0.6-3.2-0.4-4.8c1.7,1.6,3.1,3,4,3.6c1.3,1,2.8,1.7,4.4,1.9l-6.7,7.5
			c-4.1-2.3-7.7-5.4-10.5-9.2L116.5,119L116.5,119z M116.5,136.5c2.4,2.8,5.2,5.1,8.4,6.9l-8.4,9.4V136.5z M127.8,144.7l1.5-1.7
			l32.4-36.2l2-2.3l5.6-6.3l2.2-2.5l17.2-19.3l0.1-0.1l13-14.6c0.1,1.9,0.2,8.9,0.3,9.6c0,0.5,0,1.1,0,1.7v0.4c0,0.5,0,0.9,0,1.4
			c0,0.2,0,0.3,0,0.5v1.3c0,0.2,0,0.4,0,0.6c0,0.4,0,0.9,0,1.4v0.6c0,0.3,0,0.7-0.1,1s0,0.9-0.1,1.4c-1.1,19.3-6,46-23.3,61.3
			c-0.8,0.7-1.6,1.4-2.5,2.1c-0.3,0.2-0.6,0.4-0.9,0.7c-0.6,0.4-1.1,0.9-1.7,1.3l-1,0.7c-0.5,0.4-1,0.7-1.5,1.1l-1.1,0.8l-1.4,0.9
			l-1.2,0.7l-1.4,0.8c-0.4,0.2-0.8,0.5-1.2,0.7s-0.9,0.5-1.4,0.7s-0.9,0.4-1.3,0.6l-1.3,0.6l-1.3,0.6l-1.3,0.6l-1.4,0.6l-1.2,0.5
			l-1.4,0.6l-1.1,0.4c-0.5,0.2-1,0.4-1.5,0.5l-0.9,0.3l-1.7,0.5l-0.3,0.1c-3,0.9-6,1.6-9,2.1l-0.3,0.1l-1.9,0.3l-0.4,0.1l-1.8,0.3
			h-0.6l-1.8,0.2l-0.4,0.1l-1.8,0.2h-0.4l-1.8,0.1h-0.3c-0.6,0-1.2,0.1-1.8,0.1h-0.2c-4.1,0.2-8.2,0.1-12.4-0.2h0.3l-0.9-0.1h-0.2
			l-0.7-0.1H112L127.8,144.7z"/>
		<path class="st0" d="M68.5,386.5l-2.1,1.5c-2.4,1.7-6.2,0.4-8.5-2.9l-4.2-5.9l2.1-1.5l1.1,1.5l6.4-4.6l-1.1-1.5l2.1-1.5l4.2,5.9
			C70.9,380.8,70.8,384.9,68.5,386.5z M64.3,385.1l2.1-1.5c1.2-0.8,1.2-2.9,0-4.5l-1-1.5l-6.4,4.6l1.1,1.5
			C61.2,385.3,63.1,386,64.3,385.1z"/>
		<path class="st0" d="M83.2,395.6l-2.9,2.6l-2.4-2.7l1-0.9l-2.4-2.7l-2,1.7l2.4,2.7l-2,1.7l-2.4-2.7l-2,1.7l2.4,2.7l1-0.9l2.4,2.7
			l-2.9,2.6l-8.4-9.5l2-1.7l1.2,1.4l5.9-5.2l-1.2-1.4l2-1.7L83.2,395.6z"/>
		<path class="st0" d="M98.8,410.2l-1.7,2l-1.4-1.2l-7,7.8l-2.7-2.4l0.2-10.8l-3.7,4.1l1.4,1.2l-1.8,2l-5.4-4.9l1.7-2l1.4,1.2
			l5.2-5.9l-1.3-1.2l1.7-2l4.1,3.6l-0.2,10.8l3.7-4.1l-1.3-1.2l1.8-2L98.8,410.2z"/>
		<path class="st0" d="M100.5,414.8l-1.4-1l1.5-2.1l5.9,4.2L105,418l-1.4-1l-1.4,7.1l6.2-3.7l-1.4-1l1.5-2.1l6,4.2l-1.5,2.1l-1.4-1
			l-9.9,5.9l-3.4-2.4L100.5,414.8z"/>
		<path class="st0" d="M127.8,428.9l-1.9,3.4l-3.2-1.8l0.6-1.1l-3.2-1.8l-1.3,2.3l3.2,1.8l-1.3,2.3l-3.2-1.8l-1.3,2.3l3.2,1.8
			l0.6-1.1l3.2,1.8l-1.9,3.4l-11.1-6.2l1.3-2.3l1.6,0.9l3.8-6.9l-1.6-0.9l1.3-2.3L127.8,428.9z"/>
		<path class="st0" d="M141.2,446.3l-1,2.4l-6.7-2.8l1-2.4l1.4,0.6l-0.7-2.6l-3-1.3l-0.8,1.9l1.7,0.7l-1,2.4l-6.7-2.8l1-2.4l1.7,0.7
			l3.1-7.2l-1.7-0.7l1-2.4l7.9,3.4c2.9,1.3,4.5,4,3.6,6.1c-0.6,1.3-1.9,2.1-3.3,2.2l1,3.7L141.2,446.3z M133.2,437.7l2.9,1.2
			c0.9,0.5,2,0.3,2.6-0.6c0.3-0.8-0.3-1.8-1.4-2.3l-2.8-1.2L133.2,437.7z"/>
		<path class="st0" d="M282.8,438.3l3.3-1.6l1.7,3.5l-11.5,5.5l-1.1-2.4l4.7-7.9c0.9-1.5,0.8-1.6,0.7-1.9c-0.5-0.7-1.5-0.9-2.2-0.4
			l-1.6,0.8c-0.9,0.4-1.4,1.3-1.1,2l-3.3,1.6c-0.9-2,0.5-4.6,3.2-5.9l1.6-0.8c2.7-1.3,5.7-0.8,6.6,1.2c0.6,1.2,0.1,2.3-0.9,4.1
			c-0.3,0.6-1.5,2.6-3,5l3.4-1.6L282.8,438.3z"/>
		<path class="st0" d="M300.3,422.2l2.8,4.4c1.1,1.8,0,4.6-2.5,6.2l-1.5,1c-2.6,1.6-5.6,1.4-6.7-0.4l-2.8-4.4
			c-1.1-1.8,0-4.6,2.5-6.2l1.5-1C296.1,420.2,299.1,420.4,300.3,422.2z M297.2,424.2c-0.6-0.6-1.6-0.7-2.2-0.1l-1.5,1
			c-0.8,0.4-1.2,1.3-0.9,2.1l2.8,4.4c0.6,0.6,1.6,0.7,2.2,0.1l1.5-1c0.8-0.4,1.2-1.3,0.9-2.1L297.2,424.2z"/>
		<path class="st0" d="M315.1,419.4l1.6,2.1l-5.8,4.4l-1.6-2.1l1.4-1.1l-4.8-6.2l-1.4,1.1l-1.6-2.1l4.3-3.3l6.4,8.3L315.1,419.4z"/>
		<path class="st0" d="M326.3,404.3c1-0.1,2.1,0.2,2.8,1c1.5,1.6,0.9,4.5-1.3,6.6l-1.3,1.2c-2.2,2.1-5.2,2.5-6.7,0.9
			c-0.7-0.8-1-1.8-0.8-2.9c-1,0.1-2.1-0.2-2.8-1c-1.5-1.6-0.9-4.5,1.3-6.6l1.3-1.2c2.2-2.1,5.2-2.4,6.7-0.9
			C326.2,402.2,326.5,403.3,326.3,404.3z M318.9,407.6c0.7,0.5,1.7,0.4,2.2-0.3l1.3-1.2c0.7-0.3,1-1.1,0.7-1.8s-1.1-1-1.8-0.7
			c-0.3,0.1-0.5,0.3-0.6,0.6l-1.3,1.2C318.6,405.9,318.4,406.9,318.9,407.6L318.9,407.6z M326.4,407.7c-0.7-0.5-1.7-0.4-2.2,0.3
			l-1.3,1.2c-0.7,0.5-0.9,1.5-0.4,2.2c0.7,0.5,1.7,0.4,2.2-0.3l1.3-1.2C326.7,409.4,326.9,408.5,326.4,407.7L326.4,407.7z"/>
	</g>
	<path class="st0" d="M175.2,279l0-1c0-0.5-0.2-1-0.7-1.3c-0.4-0.4-1-0.6-1.6-0.6l-4.5,0c-0.6,0-1.1,0.2-1.6,0.6
		c-0.4,0.4-0.7,0.8-0.7,1.3l0,7.6c0,0.5,0.2,1,0.7,1.3c0.4,0.4,1,0.6,1.6,0.6l4.5,0c0.6,0,1.1-0.2,1.6-0.6s0.7-0.8,0.7-1.3l0-1
		l4.5,0l0,1c0,0.8-0.2,1.5-0.5,2.2c-0.4,0.7-0.8,1.3-1.4,1.8s-1.3,0.9-2.1,1.2c-0.8,0.3-1.7,0.5-2.6,0.5l-4.5,0
		c-0.9,0-1.8-0.1-2.6-0.4c-0.8-0.3-1.5-0.7-2.1-1.2c-0.6-0.5-1.1-1.1-1.4-1.8c-0.4-0.7-0.5-1.4-0.5-2.2l0-7.6c0-0.8,0.2-1.5,0.5-2.2
		c0.4-0.7,0.8-1.3,1.4-1.8c0.6-0.5,1.3-0.9,2.1-1.2c0.8-0.3,1.7-0.5,2.6-0.5l4.5,0c0.9,0,1.8,0.1,2.6,0.4c0.8,0.3,1.5,0.7,2.1,1.2
		c0.6,0.5,1.1,1.1,1.4,1.8s0.5,1.4,0.5,2.2l0,1L175.2,279z"/>
	<path class="st0" d="M195.6,272.3c0.9,0,1.8,0.1,2.6,0.4c0.8,0.3,1.5,0.7,2.1,1.2c0.6,0.5,1.1,1.1,1.4,1.8c0.4,0.7,0.5,1.4,0.5,2.2
		l0,7.6c0,0.8-0.2,1.5-0.5,2.2c-0.4,0.7-0.8,1.3-1.4,1.8c-0.6,0.5-1.3,0.9-2.1,1.2c-0.8,0.3-1.7,0.5-2.6,0.5l-4.5,0
		c-0.9,0-1.8-0.1-2.6-0.4c-0.8-0.3-1.5-0.7-2.1-1.2c-0.6-0.5-1.1-1.1-1.4-1.8c-0.4-0.7-0.5-1.4-0.5-2.2l0-7.6c0-0.8,0.2-1.5,0.5-2.2
		c0.4-0.7,0.8-1.3,1.4-1.8s1.3-0.9,2.1-1.2c0.8-0.3,1.7-0.5,2.6-0.5L195.6,272.3z M197.8,278c0-0.5-0.2-1-0.7-1.3
		c-0.4-0.4-1-0.6-1.6-0.6l-4.5,0c-0.6,0-1.1,0.2-1.6,0.6c-0.4,0.4-0.7,0.8-0.7,1.3l0,7.6c0,0.5,0.2,1,0.7,1.3c0.4,0.4,1,0.6,1.6,0.6
		l4.5,0c0.6,0,1.1-0.2,1.6-0.6c0.4-0.4,0.7-0.8,0.7-1.3L197.8,278z"/>
	<path class="st0" d="M222.5,285.6l0,5.7l-15.7,0l0-3.8l2.2,0l0-11.4l-2.2,0l0-3.8l9,0l0,3.8l-2.2,0l0,11.4l4.5,0l0-1.9L222.5,285.6
		z"/>
	<path class="st0" d="M238.3,272.3c0.9,0,1.8,0.1,2.6,0.4c0.8,0.3,1.5,0.7,2.1,1.2s1.1,1.1,1.4,1.8s0.5,1.4,0.5,2.2l0,7.6
		c0,0.8-0.2,1.5-0.5,2.2c-0.3,0.7-0.8,1.3-1.4,1.8c-0.6,0.5-1.3,0.9-2.1,1.2c-0.8,0.3-1.7,0.5-2.6,0.5l-4.5,0
		c-0.9,0-1.8-0.1-2.6-0.4c-0.8-0.3-1.5-0.7-2.1-1.2s-1.1-1.1-1.4-1.8c-0.4-0.7-0.5-1.4-0.5-2.2l0-7.6c0-0.8,0.2-1.5,0.5-2.2
		c0.3-0.7,0.8-1.3,1.4-1.8c0.6-0.5,1.3-0.9,2.1-1.2s1.7-0.5,2.6-0.5L238.3,272.3z M240.5,278c0-0.5-0.2-1-0.7-1.3
		c-0.4-0.4-1-0.6-1.6-0.6l-4.5,0c-0.6,0-1.1,0.2-1.6,0.6s-0.7,0.8-0.7,1.3l0,7.6c0,0.5,0.2,1,0.7,1.3c0.4,0.4,1,0.6,1.6,0.6l4.5,0
		c0.6,0,1.1-0.2,1.6-0.6c0.4-0.4,0.7-0.8,0.7-1.3L240.5,278z"/>
	<path class="st0" d="M269.5,287.4l0,3.8l-9,0l0-3.8l1.8,0l-2.1-3l-4,0l0,3l2.2,0l0,3.8l-9,0l0-3.8l2.2,0l0-11.4l-2.2,0l0-3.8
		l10.6,0c1,0,1.9,0.2,2.8,0.5s1.6,0.8,2.2,1.3c0.6,0.5,1.2,1.2,1.5,1.9c0.4,0.7,0.6,1.5,0.6,2.4c0,1-0.2,1.9-0.7,2.7
		c-0.5,0.8-1.1,1.5-1.9,2.1l3,4.4L269.5,287.4z M256.3,280.6l3.8,0c0.7,0,1.4-0.2,1.9-0.7c0.5-0.4,0.8-1,0.8-1.6
		c0-0.6-0.3-1.2-0.8-1.6s-1.2-0.7-1.9-0.7l-3.8,0L256.3,280.6z"/>
	<path class="st0" d="M296,287.4l0,3.8l-9,0l0-3.8l2.1,0l-0.7-1.9l-6.9,0l-0.7,1.9l2.1,0l0,3.8l-9,0l0-3.8l2.2,0l5.3-15.2l6.8,0
		l5.4,15.2L296,287.4z M287.2,281.7l-2-5.7l-0.2,0l-2,5.7L287.2,281.7z"/>
	<path class="st0" d="M309.5,272.1c1.2,0,2.4,0.2,3.5,0.6c1.1,0.4,2,0.9,2.9,1.6c0.8,0.7,1.5,1.5,1.9,2.4s0.7,1.9,0.7,3l0,3.8
		c0,1.1-0.2,2-0.7,3c-0.5,0.9-1.1,1.7-1.9,2.4c-0.8,0.7-1.8,1.2-2.8,1.6c-1.1,0.4-2.2,0.6-3.5,0.6l-9,0l0-3.8l2.2,0l0-11.4l-2.2,0
		l0-3.8L309.5,272.1z M309.5,287.4c0.6,0,1.2-0.1,1.7-0.3c0.5-0.2,1-0.5,1.4-0.8c0.4-0.3,0.7-0.7,1-1.2c0.2-0.5,0.4-1,0.3-1.5l0-3.8
		c0-0.5-0.1-1-0.4-1.5c-0.2-0.5-0.6-0.9-1-1.2c-0.4-0.3-0.9-0.6-1.4-0.8c-0.5-0.2-1.1-0.3-1.7-0.3l-2.2,0l0,11.4L309.5,287.4z"/>
	<path class="st0" d="M334.3,272.1c0.9,0,1.8,0.1,2.6,0.4c0.8,0.3,1.5,0.7,2.1,1.2c0.6,0.5,1.1,1.1,1.4,1.8s0.5,1.4,0.5,2.2l0,7.6
		c0,0.8-0.2,1.5-0.5,2.2c-0.3,0.7-0.8,1.3-1.4,1.8c-0.6,0.5-1.3,0.9-2.1,1.2c-0.8,0.3-1.7,0.5-2.6,0.5l-4.5,0
		c-0.9,0-1.8-0.1-2.6-0.4c-0.8-0.3-1.5-0.7-2.1-1.2s-1.1-1.1-1.4-1.8c-0.4-0.7-0.5-1.4-0.5-2.2l0-7.6c0-0.8,0.2-1.5,0.5-2.2
		c0.4-0.7,0.8-1.3,1.4-1.8c0.6-0.5,1.3-0.9,2.1-1.2c0.8-0.3,1.7-0.5,2.6-0.5L334.3,272.1z M336.6,277.8c0-0.5-0.2-1-0.7-1.3
		c-0.4-0.4-1-0.6-1.6-0.6l-4.5,0c-0.6,0-1.1,0.2-1.6,0.6c-0.4,0.4-0.7,0.8-0.7,1.3l0,7.6c0,0.5,0.2,1,0.7,1.3c0.4,0.4,1,0.6,1.6,0.6
		l4.5,0c0.6,0,1.1-0.2,1.6-0.6c0.4-0.4,0.7-0.8,0.7-1.3L336.6,277.8z"/>
</g>
</svg>
