<?xml version="1.0" encoding="utf-8"?>
<!-- Generator: Adobe Illustrator 22.0.1, SVG Export Plug-In . SVG Version: 6.00 Build 0)  -->
<!DOCTYPE svg PUBLIC "-//W3C//DTD SVG 1.1//EN" "http://www.w3.org/Graphics/SVG/1.1/DTD/svg11.dtd">
<svg version="1.1" id="Capa_1" xmlns="http://www.w3.org/2000/svg" xmlns:xlink="http://www.w3.org/1999/xlink" x="0px" y="0px"
	 viewBox="0 0 470 470" style="enable-background:new 0 0 470 470;" xml:space="preserve">
<style type="text/css">
	.st0{fill:none;stroke:#000000;stroke-width:8;stroke-miterlimit:10;}
</style>
<g>
	<path d="M345.4,315.6c-0.6-1.2-1.7-2.1-3-2.3c-0.2,0-0.5-0.1-0.7-0.1c-1.1,0-2.1,0.4-2.9,1.2l-9.3,9.3l-5.8-5.8l1.4-1.4
		c1.6-1.6,1.6-4.2,0-5.8c-0.8-0.8-1.8-1.2-2.9-1.2c-1,0-2.1,0.4-2.9,1.2l-1.4,1.4l-5.8-5.8l1.4-1.4c1.6-1.6,1.6-4.2,0-5.8
		c-0.8-0.8-1.8-1.2-2.9-1.2s-2.1,0.4-2.9,1.2l-1.4,1.4l-5.8-5.8l1.4-1.4c1.6-1.6,1.6-4.2,0-5.8c-0.8-0.8-1.8-1.2-2.9-1.2
		c-1,0-2.1,0.4-2.9,1.2l-1.4,1.4l-42.1-42.1c-0.8-0.8-1.8-1.2-2.9-1.2c-1,0-2.1,0.4-2.9,1.2c-1.6,1.6-1.6,4.2,0,5.8l42.1,42.1
		l-1.4,1.4c-1.6,1.6-1.6,4.2,0,5.8c1.6,1.6,4.2,1.6,5.8,0l1.4-1.4l5.8,5.8l-1.4,1.4c-1.6,1.6-1.6,4.2,0,5.8c1.6,1.6,4.2,1.6,5.8,0
		l1.4-1.4l5.8,5.8l-1.4,1.4c-1.6,1.6-1.6,4.2,0,5.8c1.6,1.6,4.2,1.6,5.8,0l1.4-1.4l5.8,5.8l-9.3,9.3c-0.9,0.9-1.4,2.3-1.1,3.6
		c0.2,1.3,1.1,2.4,2.3,3l44.7,20.3c1.5,0.7,3.4,0.4,4.6-0.8c1.2-1.2,1.5-3,0.8-4.6L345.4,315.6z M324.3,340.4l5.2-5.2l1.2,1.2
		c1.6,1.6,4.2,1.6,5.8,0c1.6-1.6,1.6-4.2,0-5.8l-1.2-1.2l5.2-5.2l13.4,29.4L324.3,340.4z"/>
	<path d="M112.2,143.5l43.2,43.2c0,0,12.8,12.8,12.8,12.8c0,0,12.8,12.8,12.8,12.8c1,1,2.3,1.4,3.7,1.1l19.1-3.8l20.4,20.4
		c1.6,1.6,4.2,1.6,5.8,0c1.6-1.6,1.6-4.2,0-5.8l-20.4-20.4l3.8-19.1c0.3-1.3-0.2-2.7-1.1-3.7l-12.8-12.8c0,0-12.8-12.8-12.8-12.8
		c0,0-43.2-43.2-43.2-43.2c-0.8-0.8-1.8-1.2-2.9-1.2c-0.4,0-0.8,0.1-1.2,0.2c-1.4,0.4-2.5,1.6-2.8,3.1l-2.8,13.8l-10.3-10.3
		c-0.8-0.8-1.8-1.2-2.9-1.2c-1,0-2.1,0.4-2.9,1.2c-1.6,1.6-1.6,4.2,0,5.8l10.3,10.3l-13.8,2.8c-1.5,0.3-2.7,1.4-3.1,2.8
		C110.7,140.9,111.1,142.4,112.2,143.5z M166.5,186.3l11.7-2.3l5.9,5.9l-11.7,2.3L166.5,186.3z M189.8,184.1l-5.9-5.9l2.3-11.7
		l5.9,5.9L189.8,184.1z M191,196.7l5.9,5.9l-11.7,2.3l-5.9-5.9L191,196.7z M202.6,196.8l-5.9-5.9l2.3-11.7l5.9,5.9L202.6,196.8z
		 M179.4,159.6l-2.3,11.7L140.8,135l2.3-11.7L179.4,159.6z M171.3,177.1l-11.7,2.3l-36.3-36.3l11.7-2.3L171.3,177.1z"/>
	<path d="M267.5,203.8l-85.4,85.4l-1.4-1.4c-0.8-0.8-1.8-1.2-2.9-1.2s-2.1,0.4-2.9,1.2c-1.6,1.6-1.6,4.2,0,5.8l1.4,1.4l-5.8,5.8
		l-1.4-1.4c-0.8-0.8-1.8-1.2-2.9-1.2s-2.1,0.4-2.9,1.2c-1.6,1.6-1.6,4.2,0,5.8l1.4,1.4l-5.8,5.8l-1.4-1.4c-0.8-0.8-1.8-1.2-2.9-1.2
		s-2.1,0.4-2.9,1.2c-1.6,1.6-1.6,4.2,0,5.8l1.4,1.4l-5.8,5.8l-9.3-9.3c-0.8-0.8-1.8-1.2-2.9-1.2c-0.2,0-0.5,0-0.7,0.1
		c-1.3,0.2-2.4,1.1-3,2.3l-20.3,44.7c-0.7,1.5-0.4,3.4,0.8,4.6c1.2,1.2,3,1.5,4.6,0.8l44.7-20.3c1.2-0.6,2.1-1.7,2.3-3
		c0.2-1.3-0.2-2.7-1.1-3.6l-9.3-9.3l5.8-5.8l1.4,1.4c1.6,1.6,4.2,1.6,5.8,0c1.6-1.6,1.6-4.2,0-5.8l-1.4-1.4l5.8-5.8l1.4,1.4
		c1.6,1.6,4.2,1.6,5.8,0c1.6-1.6,1.6-4.2,0-5.8l-1.4-1.4l5.8-5.8l1.4,1.4c1.6,1.6,4.2,1.6,5.8,0c1.6-1.6,1.6-4.2,0-5.8l-1.4-1.4
		l85.4-85.4l19.1,3.8c1.3,0.3,2.7-0.2,3.7-1.1l12.8-12.8c0,0,12.8-12.8,12.8-12.8c0,0,43.2-43.2,43.2-43.2c1.1-1.1,1.5-2.6,1-4.1
		c-0.4-1.4-1.6-2.5-3.1-2.8l-13.8-2.8l10.3-10.3c1.6-1.6,1.6-4.2,0-5.8c-0.8-0.8-1.8-1.2-2.9-1.2c-1,0-2.1,0.4-2.9,1.2l-10.3,10.3
		l-2.8-13.8c-0.3-1.5-1.4-2.7-2.8-3.1c-0.4-0.1-0.8-0.2-1.2-0.2c-1.1,0-2.1,0.4-2.9,1.2l-43.2,43.2c0,0-12.8,12.8-12.8,12.8
		c0,0-12.8,12.8-12.8,12.8c-1,1-1.4,2.3-1.1,3.7L267.5,203.8z M140.5,336.5c1.6,1.6,4.2,1.6,5.8,0l1.2-1.2l5.2,5.2l-29.4,13.4
		l13.4-29.4l5.2,5.2l-1.2,1.2C139,332.3,139,334.9,140.5,336.5z M272.1,185.1l5.9-5.9l2.3,11.7l-5.9,5.9L272.1,185.1z M304.6,192.2
		l-11.7-2.3l5.9-5.9l11.7,2.3L304.6,192.2z M293,178.2l-5.9,5.9l-2.3-11.7l5.9-5.9L293,178.2z M286,196.7l11.7,2.3l-5.9,5.9
		l-11.7-2.3L286,196.7z M317.4,179.4l-11.7-2.3l36.3-36.3l11.7,2.3L317.4,179.4z M299.9,171.3l-2.3-11.7l36.3-36.3l2.3,11.7
		L299.9,171.3z"/>
</g>
<circle class="st0" cx="235" cy="235" r="228.9"/>
</svg>
